<svg width="18pt" height="18pt" viewBox="0 0 2160 2160" xmlns="http://www.w3.org/2000/svg"><g stroke-width="160" fill="none" fill-rule="evenodd" stroke-linecap="round" stroke-linejoin="round"><path d="M1080 1147.692v-101.538c0-93.483 75.748-169.23 169.23-169.23 93.484 0 169.232-75.749 169.232-169.232V640c0-93.483-75.748-169.23-169.231-169.23h-190.486c-137.822 0-249.514-111.693-249.514-249.515V200" stroke="#2481D7"/><path d="M1960 1553.846c0 224.062-183.108 406.154-408.388 406.154-151.089 0-283.089-81.908-353.895-203.077H962.283C891.477 1878.093 759.477 1960 608.388 1960 383.108 1960 200 1777.908 200 1553.846c0-222.708 180.4-403.446 403.582-406.154h952.836C1779.6 1150.4 1960 1331.138 1960 1553.846z" stroke="#48578C"/><path stroke="#2481D7" d="M1553.846 1553.846v135.385-270.769zM1553.846 1553.846h135.385-270.769zM1012.308 1484.609h135.384M673.846 1452.308c0 18.683-15.163 33.846-33.846 33.846-18.683 0-33.846-15.163-33.846-33.846 0-18.683 15.163-33.846 33.846-33.846 18.683 0 33.846 15.163 33.846 33.846zM538.462 1655.385c0 18.683-15.164 33.846-33.847 33.846s-33.846-15.163-33.846-33.846c0-18.683 15.163-33.847 33.846-33.847 18.683 0 33.847 15.164 33.847 33.847z"/></g></svg>