<svg width="18pt" height="18pt" viewBox="0 0 2160 2160" xmlns="http://www.w3.org/2000/svg"><g stroke-width="160" fill="none" fill-rule="evenodd" stroke-linecap="round" stroke-linejoin="round"><path d="M351.977 1079.637c-88.615-66.461-145.967-172.42-145.967-291.643 0-201.133 163.238-364.371 364.371-364.371 42.267 0 82.348 7.287 120.243 20.405C762.769 301.923 910.704 205 1080.5 205c230.283 0 419.027 178.542 435.861 404.452 42.923-25.506 93.935-40.08 147.134-40.08 161.052 0 291.497 130.444 291.497 291.497 0 89.562-40.373 169.578-103.846 223.14" stroke="#48578C"/><path stroke="#2481D7" d="M861.886 1407.426l218.622 145.749 437.246-327.935"/><path d="M1590.344 1461.229c-9.182 273.716-233.926 492.776-509.828 492.776-281.732 0-510.12-228.388-510.12-510.12 0-281.732 228.388-510.12 510.12-510.12 103.991 0 200.768 31.044 281.367 84.534" stroke="#2481D7"/></g></svg>