<svg width="18pt" height="18pt" viewBox="0 0 2160 2160" xmlns="http://www.w3.org/2000/svg"><g stroke-width="160" fill="none" fill-rule="evenodd" stroke-linecap="round" stroke-linejoin="round"><path d="M1638.2 931.246c0 71.77-77.921 127.53-103.785 189.907-26.855 64.692-12.17 158.884-60.854 207.7-48.817 48.684-143.01 34-207.7 60.855-62.377 25.864-118.139 103.785-189.908 103.785-71.769 0-127.53-77.921-189.907-103.785-64.691-26.855-158.884-12.17-207.7-60.854-48.684-48.817-34-143.01-60.855-207.7-25.863-62.377-103.784-118.139-103.784-189.908 0-71.769 77.92-127.53 103.784-189.907 26.856-64.691 12.171-158.884 60.855-207.7 48.816-48.684 143.009-34 207.7-60.855C948.423 446.921 1004.184 369 1075.953 369c71.77 0 127.53 77.92 189.907 103.784 64.692 26.856 158.884 12.171 207.7 60.855" stroke="#2481D7"/><path stroke="#2481D7" d="M877.513 931.246l198.44 132.293 330.733-264.586"/><path stroke="#48578C" d="M1772.821 1292.724l187.129 187.063-187.129 93.531M1772.821 1573.331l-93.531 187.063-187.063-187.063M667.71 1604.083l-187.063 187.063-93.531-187.063M387.102 1604.083l-187.062-93.531 187.062-187.13"/></g></svg>