<svg width="18pt" height="18pt" viewBox="0 0 2160 2160" xmlns="http://www.w3.org/2000/svg"><g stroke-width="160" fill="none" fill-rule="evenodd" stroke-linecap="round" stroke-linejoin="round"><path d="M1839.37 861.9c25.81 80.632 39.744 166.595 39.744 255.755 0 462.63-374.915 837.545-837.545 837.545-462.553 0-837.545-374.916-837.545-837.545 0-462.553 374.992-837.545 837.545-837.545 88.932 0 174.59 13.858 255.07 39.593" stroke="#48578C"/><path d="M1498.45 1117.685c0 252.254-204.59 456.843-456.843 456.843-252.253 0-456.842-204.59-456.842-456.843 0-252.253 204.59-456.842 456.842-456.842" stroke="#48578C"/><path d="M1041.607 1117.685L1955.293 204M1650.023 508.562V356.28M1803.012 356.28V204M1650.731 507.854h152.281M1803.012 355.927h152.28" stroke="#2481D7"/></g></svg>