<?xml version="1.0" encoding="utf-8"?>
<!-- Generator: Adobe Illustrator 21.1.0, SVG Export Plug-In . SVG Version: 6.00 Build 0)  -->
<svg version="1.1" id="svg2" xmlns="http://www.w3.org/2000/svg" xmlns:xlink="http://www.w3.org/1999/xlink" x="0px" y="0px"
	 viewBox="0 0 240 240" style="enable-background:new 0 0 240 240;" xml:space="preserve">
<style type="text/css">
	.st0{fill:#48578C;}
	.st1{fill:#CAD6E8;}
	.st2{fill:#A5BBDB;}
	.st3{fill:url(#path2991_1_);}
</style>
<path id="path2995-1-0" class="st0" d="M240,120c0,66.3-53.7,120-120,120S0,186.3,0,120S53.7,0,120,0S240,53.7,240,120z"/>
<path id="path2993" class="st1" d="M98,175c-3.9,0-3.2-1.5-4.6-5.2L82,132.2L152.8,88l8.3,2.2l-6.9,18.8L98,175L98,175z"/>
<path id="path2989" class="st2" d="M98,175c3,0,4.3-1.4,6-3c2.6-2.5,36-35,36-35l-20.5-5l-19,12L98,174V175z"/>
<linearGradient id="path2991_1_" gradientUnits="userSpaceOnUse" x1="129.0078" y1="613.7445" x2="154.0078" y2="653.7445" gradientTransform="matrix(1 0 0 1 0 -490)">
	<stop  offset="0" style="stop-color:#EFF7FC"/>
	<stop  offset="1" style="stop-color:#FFFFFF"/>
</linearGradient>
<path id="path2991" class="st3" d="M100,144.4l48.4,35.7c5.5,3,9.5,1.5,10.9-5.1L179,82.2c2-8.1-3.1-11.7-8.4-9.3L55,117.5
	c-7.9,3.2-7.8,7.6-1.4,9.5l29.7,9.3L152,93c3.2-2,6.2-0.9,3.8,1.3L100,144.4z"/>
</svg>
