<?xml version="1.0" encoding="utf-8"?>
<!-- Generator: Adobe Illustrator 21.1.0, SVG Export Plug-In . SVG Version: 6.00 Build 0)  -->
<svg version="1.1" id="Layer_1" xmlns="http://www.w3.org/2000/svg" xmlns:xlink="http://www.w3.org/1999/xlink" x="0px" y="0px"
	 viewBox="0 0 9522.7 3145.6" style="enable-background:new 0 0 9522.7 3145.6;" xml:space="preserve">
<style type="text/css">
	.st0{fill:#344f71;}
</style>
<g>
	<g>
		<path class="st0" d="M8578.6,370c-71.7-64.4-154.7-117.7-247.9-159.1c-31-13.8-63.2-26.3-96.6-37.5
			c-133.4-44.9-280.5-67.5-441.2-67.5c-158.3,0-304.4,22.6-438,67.5c-17.1,5.7-34,11.9-50.5,18.3c-112,43.8-209.8,103.1-293.3,178
			c-95.8,86.1-170.3,191.3-223.5,315.7c-53.1,124.4-79.8,266.1-79.8,425.1c0,159,26.6,300.7,79.8,425.1
			c53.2,124.4,127.6,229.7,223.5,315.6c95.7,86.1,210.3,150.2,343.7,192.2c133.6,42.1,279.7,63.2,438,63.2
			c160.6,0,307.7-21.1,441.2-63.2c10.5-3.3,20.6-7,30.9-10.6c90.6-31.6,172.1-73.6,244.6-126.3c24.1-17.5,47.1-36.1,69-55.8
			c95.2-85.4,170.2-191.5,223.3-315.4c52.9-123.9,79.8-266.8,79.8-424.9c0-158.2-26.9-301.1-79.8-425
			C8748.8,561.6,8673.8,455.5,8578.6,370z M7056.9,1506.7c-40.3-112.1-60.7-246.8-60.7-400.6c0-153.6,20.3-288.3,60.6-400.3
			c40.4-112.5,96.7-205.4,168.8-278.8c43.3-44,91.2-81.1,143.3-111.4c35-20.2,71.8-37.7,110.8-51.9c97-35.3,201.5-53,313.1-53
			c113.6,0,218.9,17.7,316.1,53c97.1,35.4,181.8,89.8,254,163.2c72.2,73.4,128.4,166.4,168.8,278.9
			c40.5,112.5,60.7,245.9,60.7,400.3c0,154.4-20.1,287.7-60.7,400.2c-40.4,112.5-96.6,205.5-168.8,279
			c-48.7,49.5-103.3,90.2-163.2,122.4c-29,15.5-59.1,29.2-90.8,40.7c-97.3,35.4-202.5,53-316.1,53c-111.6,0-216.1-17.7-313.1-53
			c-97.4-35.3-181.9-89.6-254.1-163.2c-18-18.3-35-37.9-51-58.6C7126.5,1664.4,7087,1590.7,7056.9,1506.7z"/>
		<path class="st0" d="M6603.3,1091.5c-1.9-134.9-24.3-256-68.3-362.6c-46.1-111.3-110.6-205.4-193.4-282.5
			c-82.9-76.9-182.1-135.6-297.6-175.7c-115.5-40.2-242.8-60.3-381.6-60.3c-137.4,0-263.7,20.1-379.2,60.3
			c-115.5,40.1-214.8,98.8-297.5,175.7c-82.9,77.1-147.4,171.2-193.4,282.5c-46,111.4-69,238.1-69,380.4c0,142.2,23,269,69,380.3
			c46,111.4,110.5,205.6,193.4,282.6c82.8,77,182,134.3,297.5,172c115.5,37.8,241.8,56.6,379.2,56.6c138.8,0,266.1-18.9,381.6-56.6
			c115.5-37.7,214.7-95,297.6-172c82.8-76.9,147.2-171.1,193.4-282.6c46-111.3,69-238.1,69-380.3v0v-0.1
			C6604,1103.2,6603.3,1097.5,6603.3,1091.5z M6317.8,1109.4c0,136.9-16.4,255.3-49.5,355.1c-33.2,99.9-79.3,182.4-138.3,247.5
			c-59.1,65.1-128.4,113.5-208,144.8c-79.5,31.4-165.9,46.9-258.7,46.9c-91.4,0-176.9-15.6-256.4-46.9
			c-79.6-31.4-148.8-79.7-207.9-144.8c-59.1-65.1-105.2-147.6-138.3-247.5c-33.1-99.8-49.7-218.2-49.7-355.1
			c0-136.9,16.6-255.3,49.7-355.1c33.1-99.7,79.2-182.3,138.3-247.5c59-65.2,128.3-113.4,207.9-144.8c79.5-31.3,165-47.1,256.4-47.1
			c92.8,0,179.2,15.7,258.7,47.1c79.6,31.4,148.9,79.6,208,144.8c59,65.2,105.1,147.7,138.3,247.5
			C6301.4,854.1,6317.8,972.5,6317.8,1109.4z"/>
		<path class="st0" d="M1324.6,691.2c62-107.6,151.7-256.9,205.9-349.3c69.8-118.8,127.3-209.5,156.8-253.8
			c23-34.8,39.2-59.1,57.6-88l-0.2,0.2l-0.1,0.1l0.3-0.3c-4.5,1.3-10.3,2.6-15.6,3.9c-16.2,4-32.8,7.2-49.8,9.7
			c-6.6,1-13.8,1.7-20.9,2.5c-15.7,1.7-31.3,2.7-46.8,3c-4,0.1-7.7,0.5-11.8,0.5c-3.7,0-7.3-0.3-11-0.4c-15.9-0.3-31.5-1.4-46.9-2.9
			c-10.1-1.1-20-2.4-29.9-4c-12.9-2.1-25.5-4.6-38-7.6c-6.5-1.6-13-2.9-19.3-4.7c-127.6,229.8-560.2,932.2-582.4,973
			C850.2,932.2,417.7,230.2,290.1,0.4l-0.2,0.2l0,0l0.2-0.2c-4.8,1.3-11.3,3.1-19,5c-12.9,3.2-26.1,5.7-39.5,7.8
			c-10.3,1.6-21.4,3.1-33.8,4.2c-10.8,1-21.8,1.6-32.9,2c-6.6,0.2-13.2,0.4-20.1,0.4C87.1,19.8,41,11.7,0,0
			c18.3,28.8,34.6,53.4,57.5,88.1c29.5,44.3,87,134.9,156.8,253.7c54.3,92.5,143.9,241.7,206,349.4
			c62.1,107.6,127.4,221.1,189.7,330.4c78.2,137.2,124.9,219.9,139.8,246.3l0.1,83.6c0,112.5-2.1,233.7-6.4,342.8
			c-4.2,108.6-9.1,409.5-14.2,516.3c45.1-12.8,93.1-19.6,143-19.6c6.3,0,12.5,0.4,18.8,0.7c11.3,0.4,22.5,1.1,33.6,2.2
			c14.3,1.3,28.4,3.3,42.2,5.8c8.7,1.5,17.3,3.3,25.8,5.2c7.7,1.9,15.5,3.5,23.1,5.7c-5-106.9-9.7-407.3-14-515.8
			c-4.3-109.2-6.4-230.4-6.4-342.9l-0.1-84.1c45.9-81.1,92.6-163.7,139.6-246.2C1197.2,912.3,1262.5,798.8,1324.6,691.2z"/>
		<path class="st0" d="M2290.8,272c-6.1-15.5-11.8-29.7-15.8-40.7c-0.7,0.3-1.3,0.5-1.9,0.8c-30.8,12.1-63.8,18.2-99.9,18.2
			c-32.9,0-64.1-5.3-93.1-15.8c-2.1-0.8-6.2-2.4-8.2-3.2c0.3,0,0.5,0.2,0.8,0.2c-0.2-0.1-0.5-0.2-0.8-0.3c-4,11-9.8,25.1-15.8,40.6
			c-115.4,294.3-516.8,1293.5-705.6,1655.8c-8.1,15.7-22.5,43.6-27,52.2c0.8-0.4,1.9-0.9,2.7-1.2l0,0c-0.9,0.3-2,0.8-2.7,1.2
			c45.6-12.9,94.4-19.4,145.5-19.4c50.1,0,97.8,6.5,143,19.3c-0.4-0.3-0.8-0.5-1.2-0.8l0,0c0.4,0.3,0.8,0.5,1.2,0.8
			c15.5-41.3,102.4-257.9,203.5-512.3l0.1,0c43.4-1.3,92.7-3,135.9-3.7c56.6-0.8,164.4-1.1,220.8-1.1h3.8c55,0,163.6,0.4,220.3,1.1
			c43.2,0.7,91.9,2.5,135.2,3.7c101,254.4,188,471,203.6,512.4l0.2,0c0.5-0.3,1-0.8,1.5-1.1h0.1c-0.5,0.3-1.1,0.8-1.6,1.1
			c45.1-12.9,93.2-19.4,143.3-19.4c51.1,0,99.2,6.4,144.8,19.4c-0.8-0.3-1.9-0.8-2.8-1.3h0c0.9,0.4,2,0.9,2.7,1.3l0.1,0
			c-4.3-8.7-18.6-36.4-26.7-52.1C2807.7,1565.5,2406.1,566.3,2290.8,272z M1862.2,1345.3L1862.2,1345.3
			c141.1-356.2,292.7-744,311.5-819.5c18.9,75.5,169.7,463.2,310.9,819.5c-54.5,2.4-253.5,7.8-310.9,7.8
			C2116.3,1353.1,1916.7,1347.8,1862.2,1345.3z"/>
		<path class="st0" d="M4617,1330.2V895.6c0-111.1,2.1-220.2,6.3-327.1c4.2-106.9,8-226.3,13-337.4c-4,1.1-8.2,2-12.3,3
			c-15.8,4.1-31.8,7.5-48.2,10c-6.6,1-13.4,1.9-20.1,2.7c-17.6,2-35.6,3.2-53.9,3.5c-3.4,0.1-6.6,0.3-10.1,0.3c-3,0-6-0.2-9-0.3
			c-18.8-0.3-37.4-1.6-55.7-3.7c-5.7-0.7-11.4-1.4-17-2.3c-18.1-2.7-35.9-6.4-53.1-11c-3.4-0.9-6.9-1.6-10.3-2.5h-0.1l0.2,1.9
			c5.2,116.4,10.7,233.8,14.8,337.4c4.1,105.5,6.3,215.1,6.3,325.4l0.4,150.8l0,0h-0.6c-76.3,1.4-149.7,2.8-221.7,4.2
			c-84.7,1.6-172.4,2.5-263.3,2.5c-90.9,0-178.7-0.9-263.3-2.5c-72-1.4-146.4-2.8-222.8-4.2l0.5-150.8c0-110.3,2.1-219.9,6.3-325.4
			c4-103.6,9.6-222.8,14.9-339.3c-45.4,13.1-93.6,19.8-144.2,19.8c-51.2,0-99.8-6.5-145.4-19.5c5,111,8.7,230.5,13,337.3
			c4.2,106.9,6.2,216,6.2,327.1v434.6c0,111.2-2.1,220.7-6.2,328.6c-4.3,107.7-8.9,216.1-13.9,320.6l2.3-1.3h0l-2.3,1.3
			c45.6-13,94.5-19.6,145.7-19.6c50.5,0,98.5,6.6,144.1,19.7c-5.2-106.6-9.9-218.1-13.9-322.3c-4.1-106.4-6.2-216.4-6.2-326.9
			l-0.3-163.5l0.1-0.2c76.1-1.3,150.9-2.3,222.5-3c85.5-0.8,173.8-1.3,262.9-1.3c89,0,177.4,0.4,262.9,1.3
			c71.7,0.7,145.6,1.7,221.7,3h0.6v163.7c0,110.5-2.2,220.5-6.3,326.9c-4.1,104.2-9.1,215.7-14.2,322.3
			c45.7-13.1,94.5-19.7,145-19.7c51.2,0,99.3,6.6,144.9,19.7c-5-104.5-9.7-212.9-13.9-320.6C4619.1,1550.9,4617,1441.4,4617,1330.2z
			"/>
		<path class="st0" d="M9519,126.4l-0.1-0.4l-0.1-0.5c-1.7-7.1-4.4-13.6-7.1-20.1c-0.6-1.4-0.9-3-1.5-4.4
			c-3.3-6.9-7.4-13.2-11.9-19.2c-0.7-0.8-1-1.9-1.7-2.8l-0.1,0l-0.2-0.3c-4.8-6.1-10.5-11.6-16.5-16.8c-0.5-0.5-0.9-1.1-1.5-1.5
			c-5.6-4.6-12-8.6-18.6-12.4c-1.4-0.8-2.5-1.9-3.9-2.7h-0.1l-0.1-0.1c-0.6-0.3-1.3-0.5-2-0.8c-7.5-3.9-15.4-7.2-23.9-9.9
			c-1.4-0.5-3-0.8-4.5-1.2c-6.3-1.9-12.5-3.8-19.3-5.1c-2.1-0.4-4.3-0.7-6.4-1.1h-0.3c-21-3.4-40.7-3.4-59.1,0
			c-18.4,3.3-34.8,9.7-49.2,19.4c-7.1,4.8-13.5,10.2-19.4,16.5l-0.2,0.2c-2.8,3-5.1,6.7-7.7,10c-2.8,3.7-5.9,7-8.4,11l-0.1,0.2
			l-0.1,0.2c-9.5,15.7-16.1,34.3-19.6,55.8c-0.1,1.1-0.9,6.6-1.2,8.3c-0.7,5.6-2.4,20.6-2.6,23.2c-17.9,211.6-46.5,550.7-57.8,684
			c-38.9,477.2-88.1,780.3-97,866.1c16.9-2.4,34.8-2.2,53.9,0.8l0.2,0.1c19,2.9,36.3,8.3,51.6,15.8v-0.1
			c18.1-84.4,64.9-387.8,175.3-853.6c30.6-130.3,159.2-682.6,159.7-684.7c0.9-3.2,1.7-8,2.9-15
			C9523.9,164.1,9523.4,144.4,9519,126.4z"/>
		<path class="st0" d="M9194.3,1989.7c-10.8-13.4-24.5-24.9-41-33.8c-16.4-8.8-35.4-15-56.4-18.3c-10.3-1.6-20.5-2.4-30.3-2.4
			c-9.8,0-19.5,0.8-28.6,2.4c-18.4,3.4-35,10-49.3,19.5c-14.3,9.7-26.5,22.6-36,38.1c-9.6,15.7-16.2,34.6-19.6,56.1
			c-3.5,21.5-3,41.5,1.3,59.3c4.2,17.8,11.7,33.8,22.4,47.4c10.7,13.6,24.3,24.8,40.9,33.2c16.5,8.6,35.4,14.5,56.3,17.8
			c11,1.8,22,2.6,32.5,2.6c9.1,0,18.2-0.6,26.6-2c18.3-2.9,34.8-9.2,49.3-18.9c14.2-9.6,26.2-22.3,36-38.2
			c9.6-15.7,16.1-34.5,19.6-56c3.4-21.6,2.9-41.5-1.3-59.3C9212.5,2019.3,9204.9,2003.3,9194.3,1989.7z"/>
	</g>
	<g>
		<g>
			<path class="st0" d="M3399.9,2497.7h99.9l363.8,405.9v-405.9h98.1v647.9h-67.7l-395.2-448.1v438.2h-99V2497.7z"/>
			<path class="st0" d="M4594.9,2497.7v54.2H4275v210.6h265.7v54.7H4275v253.1h319.9v65.4h-476.3v-638.1H4594.9z"/>
			<path class="st0" d="M4803.7,2497.7l162.2,412.3l162.7-419.4l164,417.1l157.7-410h104.4l-250.9,647.9H5233l-130.8-333.4
				l-128.6,333.4h-71.2l-255.9-647.9H4803.7z"/>
			<path class="st0" d="M5852.2,3145.6c-38.2,0-71.7-4.5-100.4-13.5c-28.7-8.9-53.1-21.3-73.2-37.2c-20.2-15.8-36.2-34.6-48-56.4
				c-11.8-21.8-19.9-45.7-24.4-71.7h108.4c3.9,15.8,9.4,30.7,16.6,44.6c7.2,13.9,16.3,25.9,27.3,36.1c11,10.2,24.2,18.2,39.4,24
				c15.2,5.8,32.9,8.8,52.9,8.8c13.4,0,26.7-1.4,39.7-4.3c13-2.8,24.6-7.4,34.9-13.6c10.3-6.3,18.6-14.6,24.8-24.9
				c6.3-10.3,9.4-22.9,9.4-37.8c0-19.2-4.9-36-14.6-50.6c-9.7-14.6-22.6-28-38.5-40.1c-16-12.1-34.2-23.4-54.7-33.8
				c-20.5-10.5-41.3-21-62.5-31.6c-21.2-10.6-42-21.6-62.5-33.2c-20.5-11.4-38.7-24.4-54.6-38.7c-16-14.4-28.9-30.5-38.6-48.4
				s-14.6-38.5-14.6-61.9c0-25.3,5.5-48.9,16.6-70.5c11-21.7,27.1-40.4,48.2-56.2c21.1-15.8,46.8-28.3,77.3-37.2
				c30.5-9,65.1-13.5,104-13.5c32.3,0,61.4,4.5,87.3,13.5c26,8.9,48.9,21.1,68.8,36.5c19.9,15.4,36.6,33.5,50.2,54.4
				c13.6,20.9,24,43.5,31.1,67.6h-98.6c-5.7-15.2-12.2-29.7-19.7-43.4c-7.5-13.7-16.7-25.8-27.8-36.3c-11-10.5-24.4-18.8-39.9-24.9
				c-15.5-6.1-34.2-9.2-56-9.2c-20.3,0-37.5,2.7-51.5,8.1c-14.1,5.4-25.4,12.2-34,20.4c-8.7,8.2-14.9,17.4-18.6,27.6
				c-3.7,10.1-5.6,20.1-5.6,30c0,17,5,32.5,15,46.4c10,13.9,23.3,26.8,39.9,38.5c16.6,11.8,35.3,23.2,56.2,34.1
				c20.9,10.9,42.3,21.9,64.3,32.9c21.9,11,43.5,22.6,64.5,34.5c21,12,39.9,25.2,56.4,39.6c16.6,14.5,29.9,30.6,39.9,48.1
				c10,17.7,15,37.5,15,59.6c0,26-5.3,50.2-16.1,72.4c-10.7,22.3-26.6,41.7-47.7,58.2c-21,16.6-47.2,29.6-78.4,39
				C5928.7,3140.9,5892.8,3145.6,5852.2,3145.6z"/>
		</g>
	</g>
</g>
</svg>
