<svg width="18pt" height="18pt" viewBox="0 0 2160 2160" xmlns="http://www.w3.org/2000/svg"><path d="M868.057 759.44c120.634 240.663 255.546 474.308 403.646 699.121 13.794 20.932 41.623 27.345 63.281 14.883l96.435-55.659c61.346-35.452 139.873-14.399 175.446 46.947l115.915 200.976c35.452 61.345 14.399 139.994-46.947 175.446l-102.121 58.925c-194.322 112.165-442.124 57.474-571.107-126.079a6090.048 6090.048 0 0 1-542.308-939.179C365.919 631.304 442.389 389.31 636.71 277.146l102.122-58.926c61.466-35.452 139.993-14.399 175.446 46.947l115.915 200.976c35.573 61.466 14.52 139.994-46.947 175.446l-96.435 55.658c-21.658 12.463-30.007 39.808-18.754 62.193z" stroke="#4A5669" stroke-width="160" fill="none" fill-rule="evenodd" stroke-linecap="round" stroke-linejoin="round"/></svg>