<svg width="18pt" height="18pt" viewBox="0 0 2160 2160" xmlns="http://www.w3.org/2000/svg"><g stroke-width="160" fill="none" fill-rule="evenodd" stroke-linecap="round" stroke-linejoin="round"><path d="M351.977 1080.637c-88.615-66.461-145.967-172.42-145.967-291.643 0-201.133 163.238-364.371 364.371-364.371 42.267 0 82.348 7.287 120.243 20.405C762.769 302.923 910.704 206 1080.5 206c230.283 0 419.027 178.542 435.861 404.452 42.923-25.506 93.935-40.08 147.134-40.08 161.052 0 291.497 130.444 291.497 291.497 0 89.562-40.373 169.578-103.846 223.14" stroke="#48578C"/><path d="M1444.239 1954.983H716.807c-40.59 0-73.53-32.939-73.53-73.53v-508.808c0-40.591 32.94-73.53 73.53-73.53h727.432c40.59 0 73.53 32.939 73.53 73.53v508.808c0 40.591-32.94 73.53-73.53 73.53zM1080.508 788.994c-160.979 0-291.497 130.518-291.497 291.498v218.622h582.995v-218.622c0-160.98-130.518-291.498-291.498-291.498zM1080.508 1627.049v36.437-72.874z" stroke="#2481D7"/></g></svg>