<svg width="18pt" height="18pt" viewBox="0 0 2160 2160" xmlns="http://www.w3.org/2000/svg"><g stroke-width="160" fill="none" fill-rule="evenodd" stroke-linecap="round" stroke-linejoin="round"><path d="M1955 1371.917c0 201.396-163.188 364.583-364.583 364.583-201.396 0-364.584-163.188-364.584-364.583 0-201.396 163.188-364.584 364.584-364.584 201.396 0 364.583 163.188 364.583 364.584zM934.167 1371.917c0 201.396-163.188 364.583-364.584 364.583C368.188 1736.5 205 1573.312 205 1371.917c0-201.396 163.188-364.584 364.583-364.584 201.396 0 364.584 163.188 364.584 364.584z" stroke="#48578C"/><path d="M1590.417 1239.544c73.135 0 132.343 59.208 132.343 132.343M586.39 1239.544c73.136 0 132.344 59.208 132.344 132.343" stroke="#2481D7"/><path d="M934.167 1371.917V912.833c0-189.437-153.563-343-343-343-177.407 0-325.573 135.26-341.615 311.938L205 1371.917M1955 1371.917l-44.552-490.146c-16.042-176.677-164.208-311.938-341.615-311.938-189.437 0-343 153.563-343 343v459.084M934.167 1371.917c0-80.5 65.333-145.834 145.833-145.834s145.833 65.334 145.833 145.834M934.167 1007.333c0-80.5 65.333-145.833 145.833-145.833s145.833 65.333 145.833 145.833M606.042 424c-60.375 0-109.375 49-109.375 109.375v36.458h218.75v-36.458c0-60.375-49-109.375-109.375-109.375zM1553.958 424c-60.375 0-109.375 49-109.375 109.375v36.458h218.75v-36.458c0-60.375-49-109.375-109.375-109.375z" stroke="#48578C"/></g></svg>