<svg width="18pt" height="18pt" viewBox="0 0 2160 2160" xmlns="http://www.w3.org/2000/svg"><g fill="none" fill-rule="evenodd"><path d="M730.235 1888.645l-383.558 72.277v-393.414.352c-92.458-139.273-146.665-306.471-146.665-486.928 0-485.402 394.47-879.99 879.99-879.99 485.402 0 879.989 394.588 879.989 879.99 0 485.52-394.587 879.99-879.99 879.99-124.723 0-242.055-24.875-349.062-71.807" stroke="#4A5669" stroke-width="160" stroke-linecap="round" stroke-linejoin="round"/><path d="M1052.487 1383.402c61.951 0 114.047 52.096 114.047 114.047 0 61.834-52.096 113.93-114.047 113.93s-113.93-52.096-113.93-113.93c0-61.951 51.979-114.047 113.93-114.047m9.856-382.737c43.647-30.975 81.663-57.727 81.663-99.966 0-43.53-32.384-80.138-109.823-80.138-70.282 0-129.417 35.082-173.064 87.178l-114.047-128.01c74.623-87.295 187.262-136.574 308.231-136.574 181.513 0 292.743 91.519 292.743 222.344 0 116.863-74.623 173.182-142.206 219.645-49.162 36.49-92.81 67.466-92.81 119.562 0 22.527 11.264 46.463 25.227 59.018l-153.353 45.055c-29.568-32.383-46.346-74.506-46.346-123.785 0-97.15 67.466-143.614 123.785-184.329" fill="#4A5669"/></g></svg>