<?xml version="1.0" encoding="utf-8"?>
<!-- Generator: Adobe Illustrator 19.2.1, SVG Export Plug-In . SVG Version: 6.00 Build 0)  -->
<svg version="1.1" id="Layer_1" xmlns="http://www.w3.org/2000/svg" xmlns:xlink="http://www.w3.org/1999/xlink" x="0px" y="0px"
	 viewBox="0 0 634.8 90" style="enable-background:new 0 0 634.8 90;" xml:space="preserve">
<style type="text/css">
	.st0{fill:#354c6f;}
	.st1{fill:#344f71;}
	.st2{fill:#FFFFFF;}
	.st3{fill:#597392;}
</style>
<path class="st0" d="M451,4c5.1,3.7,8.4,9.8,8.4,16.5c0,5.6-2.1,11-5.8,14.7C451.8,37,476,19.1,476,19.1S449.8,3.1,451,4z
	 M440.2,87.8h28.3l-8.6-11.1C455.6,83.1,448.2,87.4,440.2,87.8L440.2,87.8z"/>
<path class="st1" d="M84.2,32.6H65.8v-16H55.2V71h10.4v16.7H19V71h10.3V16.6H18.4v16.1H0V0h84.2V32.6z M86.2,87.7V72.4h5.1v-28h-5
	V29.3h22l3.5,7.5c3-5.6,6.1-10.4,18.1-10.4v21.1c-10.5,0-16.5,2.7-16.5,13v12.1h5.8v15.3h-33V87.7z M136.5,34.2
	c4.7-2.8,14.7-8.3,25.5-8.3c14,0,31.7,5.3,31.7,24.1v22.8h7v15h-25l-2.8-5.3c-4.3,6-11.6,7.5-15.8,7.5c-11.1,0-23-6-23-19.5
	c0-13.2,11.1-21.5,24.3-21.5c6.9,0,11,3.4,11.6,4.1V49c0-5.3-4.8-6.5-11.1-6.5c-6.9,0-13,2.9-17.4,5.4L136.5,34.2z M170,66.5
	c-0.4-0.6-2-3.4-6.9-3.4c-4.7,0-6.8,2.6-6.8,6.2c0,3.3,2.7,5.5,6.2,5.5s6.4-2.1,7.5-3.9C170,70.9,170,66.5,170,66.5z M237.4,68.8
	c0.1-2.5,1.5-8.3,3.5-12.9l5.6-11.8h-6.2V29.3h30.2v14.9h-6.1l-20.2,43.6h-18.1l-21.8-43.6h-5.5V29.3h35.6v14.9h-5.8l5.4,12.4
	c1.5,4.4,2.8,9.8,3,12.3L237.4,68.8L237.4,68.8z M332.8,79.7c-8.7,7.5-18,10.2-30.2,10.2c-14.5,0-30.9-9.2-30.9-31.7
	c0-19.2,13.8-30.5,31.5-30.5c13.9,0,24.6,7.1,28,17c1.4,4.1,2.7,13.1,0.2,19.8h-36.8c0.7,3.2,2.2,9.6,12,9.6c4,0,10.1-0.4,16.4-5.6
	C323,68.5,332.8,79.7,332.8,79.7z M312.6,52.8c-0.1-4.4-1.2-9.4-8.7-9.4c-7.1,0-8.8,6.4-9,9.4C294.9,52.8,312.6,52.8,312.6,52.8z
	 M338.1,87.7V72.4h5V15.1h-4.9V0h27.1v72.4h6.9v15.3C372.2,87.7,338.1,87.7,338.1,87.7z M417.9,87.8l-32.7-16.3h7.3V16.2h-7.3V0
	h53.7c11.3,0,20.5,9.2,20.5,20.5c0,10-6.5,18.4-15.8,20.3c11.9,1,20,11.1,20,23.4c0,12.9-10.8,23.1-23.3,23.6L417.9,87.8L417.9,87.8
	z M475.4,87.7V72.4h4.9v-28h-4.9V29.3h27.1v43.2h5.6v15.3h-32.7V87.7z M491.3,0.3c8.1,0,12.9,6.5,12.9,11.9
	c0,6.4-4.6,11.8-12.9,11.8c-7.4,0-12.6-6.2-12.6-11.8C478.6,6.8,483.1,0.3,491.3,0.3z M516.9,87.7V72.4h5.2v-28h-5V29.3h22l3.5,7.5
	c3-5.6,6.1-10.4,18.1-10.4v21.1c-10.5,0-16.5,2.7-16.5,13v12.1h5.9v15.3h-33.2V87.7z M600.1,15.2V0h29.1v72.5h5.6v15.2h-27.4l-2-4.3
	c-1.5,1.4-6.7,5.4-14.7,5.4c-16.5,0-27.1-14.6-27.1-30.9c0-18.2,12.8-29.8,27.1-29.8c8.3,0,12.5,3,14.7,4.4V15.2H600.1L600.1,15.2z
	 M597.2,72.3c4.6,0,8.8-5.7,8.3-15c0-8-4-14-8.4-14c-4.9,0-8.3,5.7-8.3,14.6C588.8,64.9,592,72.3,597.2,72.3z"/>
<circle class="st2" cx="429" cy="22" r="13.3"/>
<circle class="st1" cx="434.3" cy="19.6" r="6.6"/>
<path class="st3" d="M358.4,50.9h59.5v36.8h-59.5c-3.4,0-6.2-2.8-6.2-6.2c0-3.4,2.8-6.2,6.2-6.2v0.1c-3.4,0-6.2-2.8-6.2-6.2
	c0-3.4,2.8-6.2,6.2-6.2c-3.4,0-6.2-2.8-6.2-6.2C352.2,53.7,355,50.9,358.4,50.9z"/>
<path class="st0" d="M385.4,46.4h43.9v28.5h-43.9c-2.7,0-4.8-2.1-4.8-4.8c0-2.6,2.2-4.8,4.8-4.8v0.1c-2.7,0-4.8-2.1-4.8-4.8
	c0-2.6,2.2-4.8,4.8-4.8c-2.7,0-4.8-2.1-4.8-4.8C380.5,48.5,382.7,46.4,385.4,46.4z"/>
</svg>
