<?xml version="1.0" encoding="UTF-8" standalone="no"?>
<svg width="97px" height="24px" viewBox="0 0 97 24" version="1.1" xmlns="http://www.w3.org/2000/svg" xmlns:xlink="http://www.w3.org/1999/xlink">
    <g id="v.2" stroke="none" stroke-width="1" fill="none" fill-rule="evenodd">
        <g id="About_Page-Copy-27" transform="translate(-1154.000000, -893.000000)" fill="#2c3645">
            <g id="tnw_new" transform="translate(1154.000000, 893.000000)">
                <path d="M49.969697,24 L41.1515152,24 L41.1515152,16.2 C41.1515152,15.15 40.7106061,14.25 40.1227273,13.5 L36.7424242,10.05 C36.0075758,9.45 35.1257576,9 34.0969697,9 L32.3333333,9 L32.3333333,24 L23.5151515,24 L23.5151515,0 L36.3015152,0 C38.2121212,0 40.1227273,0.75 41.4454545,2.25 L47.7651515,8.7 C49.2348485,10.05 49.969697,12 49.969697,13.95 L49.969697,24 L49.969697,24 Z M88.1818182,0 L88.1818182,7.8 C88.1818182,8.85 87.7409091,9.75 87.1530303,10.5 L83.7727273,13.95 C83.0378788,14.7 82.1560606,15 81.1272727,15 L77.4530303,15 C78.6287879,13.65 79.3636364,11.85 79.3636364,10.05 L79.3636364,0 L70.5454545,0 L70.5454545,7.8 C70.5454545,8.85 70.1045455,9.75 69.5166667,10.5 L66.1363636,13.95 C65.4015152,14.7 64.519697,15 63.4909091,15 L61.7272727,15 L61.7272727,0 L52.9090909,0 L52.9090909,24 L65.6954545,24 C67.6060606,24 69.5166667,23.25 70.8393939,21.75 L74.9545455,17.55 L74.9545455,24 L83.3318182,24 C85.2424242,24 87.1530303,23.25 88.4757576,21.75 L94.7954545,15.3 C96.2651515,13.95 97,12 97,10.05 L97,0 L88.1818182,0 L88.1818182,0 Z M20.5757576,0 L0,0 L0,9 L5.87878788,9 L5.87878788,24 L14.6969697,24 L14.6969697,9 L20.5757576,9 L20.5757576,0 Z" id="Shape"></path>
            </g>
        </g>
    </g>
</svg>