<svg width="24pt" height="24pt" viewBox="0 0 2304 2304" xmlns="http://www.w3.org/2000/svg"><g fill="none" fill-rule="evenodd"><path d="M1789.674 1476.52l135.275 25.462v-273.787.262c64.312-97.037 102.025-213.412 102.025-338.975 0-337.837-274.575-612.5-612.5-612.5-222.688 0-417.9 119.35-525.088 297.413" stroke="#2481D7" stroke-width="160" stroke-linecap="round" stroke-linejoin="round"/><path d="M646.539 1976.994c74.55 32.637 156.187 50.05 242.987 50.05 337.838 0 612.5-274.663 612.5-612.5 0-337.925-274.662-612.5-612.5-612.5-337.925 0-612.5 274.575-612.5 612.5 0 125.562 37.713 241.937 102.025 338.887" stroke="#48578C" stroke-width="160" stroke-linecap="round" stroke-linejoin="round"/><path stroke="#48578C" stroke-width="160" stroke-linecap="round" stroke-linejoin="round" d="M379.086 1753.16v273.875l266.963-50.313"/><path d="M714.5 1414.517c0 48.3-39.2 87.5-87.5 87.5s-87.5-39.2-87.5-87.5 39.2-87.5 87.5-87.5 87.5 39.2 87.5 87.5M977 1414.517c0 48.3-39.2 87.5-87.5 87.5s-87.5-39.2-87.5-87.5 39.2-87.5 87.5-87.5 87.5 39.2 87.5 87.5M1239.5 1414.517c0 48.3-39.2 87.5-87.5 87.5s-87.5-39.2-87.5-87.5 39.2-87.5 87.5-87.5 87.5 39.2 87.5 87.5" fill="#2481D7"/></g></svg>