<svg width="24pt" height="24pt" viewBox="0 0 2304 2304" xmlns="http://www.w3.org/2000/svg"><g fill="none" fill-rule="evenodd"><path d="M867.398 877.118c0 86.985-70.454 157.44-157.44 157.44-86.985 0-157.439-70.455-157.439-157.44 0-86.986 70.454-157.44 157.44-157.44 86.985 0 157.439 70.454 157.439 157.44zM1181.268 877.118c0-86.986 70.376-157.44 157.266-157.44 43.406 0 82.723 17.633 111.188 46.13M709.958 1033.548h281.2" stroke="#48578C" stroke-width="160" stroke-linecap="round" stroke-linejoin="round"/><path d="M1640.08 1458.777H407.497c-72.088 0-130.498-58.388-130.498-130.53V410.53C277 338.389 335.41 280 407.498 280H1640.08c72.089 0 130.577 58.389 130.577 130.53v917.717c0 72.142-58.488 130.53-130.577 130.53z" stroke="#48578C" stroke-width="160" stroke-linecap="round" stroke-linejoin="round"/><path d="M1986.63 1474.42c0 238.872-193.581 432.454-432.453 432.454-238.872 0-432.454-193.582-432.454-432.454 0-238.871 193.582-432.453 432.454-432.453s432.454 193.582 432.454 432.453" fill="#FFF"/><path d="M1986.63 1474.42c0 238.872-193.581 432.454-432.453 432.454-238.872 0-432.454-193.582-432.454-432.454 0-238.871 193.582-432.453 432.454-432.453s432.454 193.582 432.454 432.453z" stroke="#2481D7" stroke-width="160" stroke-linecap="round" stroke-linejoin="round"/><path d="M1534.95 1299.527c106.522 0 192.859 86.337 192.859 192.86" fill="#FFF"/><path d="M1534.95 1299.527c106.522 0 192.859 86.337 192.859 192.86" stroke="#2481D7" stroke-width="160" stroke-linecap="round" stroke-linejoin="round"/><g><path d="M2026.314 2024.908l-196.71-196.753" fill="#FFF"/><path d="M2026.314 2024.908l-196.71-196.753" stroke="#2481D7" stroke-width="160" stroke-linecap="round" stroke-linejoin="round"/></g></g></svg>