<svg width="24pt" height="24pt" viewBox="0 0 2304 2304" xmlns="http://www.w3.org/2000/svg"><g stroke-width="160" fill="none" fill-rule="evenodd" stroke-linecap="round" stroke-linejoin="round"><path d="M992.685 1867.822h318.082c43.895 0 79.52-35.62 79.52-79.51v-795.09c0-43.89-35.625-79.51-79.52-79.51H356.521c-43.896 0-79.521 35.62-79.521 79.51v795.09c0 43.89 35.625 79.51 79.52 79.51h318.083" stroke="#2481D7"/><path d="M1947.48 1151.52c43.895 0 79.52-35.632 79.52-79.537V356.538c0-43.985-35.625-79.538-79.52-79.538H993.232c-43.895 0-79.52 35.553-79.52 79.538" stroke="#48578C"/><path stroke="#2481D7" d="M674.945 1867.822L834.123 2027l159.178-159.178"/><path d="M1629.123 1470.836c43.896 0 79.52-35.656 79.52-79.59V674.946c0-43.933-35.624-79.589-79.52-79.589H674.877c-43.896 0-79.52 35.656-79.52 79.59" stroke="#48578C"/></g></svg>