<svg width="24pt" height="24pt" viewBox="0 0 2304 2304" xmlns="http://www.w3.org/2000/svg"><g stroke-width="160" fill="none" fill-rule="evenodd" stroke-linecap="round" stroke-linejoin="round"><path d="M1705.333 1013.778H414.223c-50.907 0-92.223-41.316-92.223-92.222V368.222C322 317.316 363.316 276 414.222 276h1291.111c50.907 0 92.223 41.316 92.223 92.222v553.334c0 50.906-41.316 92.222-92.223 92.222z" stroke="#48578C"/><path d="M598.667 2028.222h1291.11c50.907 0 92.223-41.315 92.223-92.222v-553.333c0-50.907-41.316-92.223-92.222-92.223H875.333c-50.906 0-92.222 41.316-92.222 92.223v92.222M1152 1750.698H322" stroke="#2481D7"/><path d="M598.667 644.674h922.222" stroke="#48578C"/></g></svg>