<svg width="24pt" height="24pt" viewBox="0 0 2304 2304" xmlns="http://www.w3.org/2000/svg"><g stroke-width="160" fill="none" fill-rule="evenodd" stroke-linecap="round" stroke-linejoin="round"><path d="M1374.636 1194.597c105.857 120.647 218.935 235.123 338.07 342.378 11.062 9.899 28.065 9.316 38.43-1.281l46.698-47.165c29.696-30.161 77.908-30.161 107.604 0l97.124 98.405c29.696 30.046 29.696 78.84 0 108.886l-49.377 49.959c-93.98 95.144-244.09 101.898-346.105 15.605-164.55-139.28-316.525-293.234-454.175-459.882-85.245-103.179-78.49-255.27 15.489-350.413l49.377-49.96c29.696-30.045 77.792-30.045 107.488 0l97.24 98.405c29.696 30.046 29.696 78.84 0 108.886l-46.699 47.28c-10.48 10.598-10.947 27.717-1.164 38.897z" stroke="#2481D7"/><path stroke="#48578C" d="M915.596 828.149H279V229h1572.766v599.149h-195.358M1076.468 1647.532H279.447v-599.149h546.112M513.866 1347.957h364.272M514.68 529.021h748.937M1489 529h121M616.468 1872.213l704.626-.213"/></g></svg>