<svg width="24pt" height="24pt" viewBox="0 0 2304 2304" xmlns="http://www.w3.org/2000/svg"><g fill="none" fill-rule="evenodd"><path d="M804.607 1954.563c106.426 46.61 222.995 71.446 346.91 71.446 482.37 0 874.492-392.122 874.492-874.491 0-482.457-392.122-874.492-874.491-874.492-482.457 0-874.492 392.035-874.492 874.492 0 179.27 53.869 345.424 145.69 483.856" stroke="#48578C" stroke-width="160" stroke-linecap="round" stroke-linejoin="round"/><path stroke="#48578C" stroke-width="160" stroke-linecap="round" stroke-linejoin="round" d="M422.752 1634.98v390.986l381.19-71.884"/><path d="M1457.564 1588.737H845.42c-48.272 0-87.45-39.177-87.45-87.449v-349.796c0-48.272 39.178-87.45 87.45-87.45h612.144c48.272 0 87.449 39.178 87.449 87.45v349.796c0 48.272-39.177 87.45-87.45 87.45z" stroke="#2481D7" stroke-width="160" stroke-linecap="round" stroke-linejoin="round"/><path d="M932.869 1064.042V845.42c0-120.768 97.855-218.623 218.623-218.623 120.767 0 218.622 97.855 218.622 218.623v218.622" stroke="#2481D7" stroke-width="160" stroke-linecap="round" stroke-linejoin="round"/><path d="M1195.216 1319.446c0 24.136-19.588 43.725-43.724 43.725-24.136 0-43.725-19.589-43.725-43.725 0-24.136 19.589-43.724 43.725-43.724 24.136 0 43.724 19.588 43.724 43.724" fill="#2481D7"/></g></svg>