<svg width="24pt" height="24pt" viewBox="0 0 2304 2304" xmlns="http://www.w3.org/2000/svg"><g fill="none" fill-rule="evenodd"><path d="M1600.718 1004.923c0 240.688-195.068 435.755-435.755 435.755-240.688 0-435.755-195.067-435.755-435.755 0-240.687 195.067-435.755 435.755-435.755 240.687 0 435.755 195.068 435.755 435.755" fill="#FFF"/><path d="M1600.718 1004.923c0 240.688-195.068 435.755-435.755 435.755-240.688 0-435.755-195.067-435.755-435.755 0-240.687 195.067-435.755 435.755-435.755 240.687 0 435.755 195.068 435.755 435.755zM534.764 1635.123l1277.35-1277.35" stroke="#2481D7" stroke-width="160" stroke-linecap="round" stroke-linejoin="round"/><path d="M1799.59 714.752c92.695 228.276 68.466 504.667-121.29 722.17l-513.098 588.087-315.339-343.288M529.582 1297.088C297.604 854.472 609.312 278 1152.707 278c123.125 0 234.454 29.697 330.347 80.793" stroke="#48578C" stroke-width="160" stroke-linecap="round" stroke-linejoin="round"/></g></svg>