<svg width="24pt" height="24pt" viewBox="0 0 2304 2304" xmlns="http://www.w3.org/2000/svg"><g stroke-width="160" fill="none" fill-rule="evenodd" stroke-linecap="round" stroke-linejoin="round"><path d="M1189.194 1761.713h-535.03c-84.458 0-152.865-68.408-152.865-152.866v-484.05M1270.928 1685.28c42.191 0 76.433 34.242 76.433 76.433 0 42.19-34.242 76.433-76.433 76.433-42.19 0-76.432-34.242-76.432-76.433 0-42.191 34.242-76.433 76.432-76.433zM1954.837 997.384c42.19 0 76.433 34.242 76.433 76.433 0 42.191-34.242 76.433-76.433 76.433-42.191 0-76.433-34.242-76.433-76.433 0-42.19 34.242-76.433 76.433-76.433zM654.164 1072.863H1877.09" stroke="#48578C"/><path d="M272 1073.817h611.463V768.086c0-84.459 68.407-152.866 152.866-152.866h229.298M1419.364 466c84.459 0 152.866 68.407 152.866 152.866 0 84.458-68.407 152.865-152.866 152.865-84.458 0-152.865-68.407-152.865-152.865 0-84.459 68.407-152.866 152.865-152.866z" stroke="#2481D7"/></g></svg>