<svg width="24pt" height="24pt" viewBox="0 0 2304 2304" xmlns="http://www.w3.org/2000/svg"><g stroke-width="160" fill="none" fill-rule="evenodd" stroke-linecap="round" stroke-linejoin="round"><path d="M804.639 1954.665c106.432 46.613 223.009 71.45 346.932 71.45 482.399 0 874.544-392.146 874.544-874.544 0-482.486-392.145-874.545-874.544-874.545-482.486 0-874.545 392.059-874.545 874.545 0 179.281 53.872 345.445 145.7 483.885" stroke="#48578C"/><path stroke="#48578C" d="M422.76 1635.063v391.009l381.214-71.888"/><path d="M1500.488 1252.117l149.547 85.705-87.455 152.171-149.547-85.705c-46.35 48.974-106.694 83.956-174.034 100.572v171.411H1064.09v-171.41c-67.34-16.617-127.683-51.599-174.034-100.573l-149.547 85.705-87.455-152.17 149.547-85.706c-9.62-32.358-14.867-65.59-14.867-100.572s5.247-68.215 14.867-100.573l-149.547-85.705 87.455-152.171L890.056 898.8c46.35-48.974 106.694-83.956 174.034-100.572V626.818H1239v171.41c67.34 16.617 127.683 51.599 174.034 100.573l149.547-85.705 87.455 152.17-149.547 85.706c9.62 32.358 14.867 65.59 14.867 100.573 0 34.981-5.247 68.214-14.867 100.572z" stroke="#2481D7"/><path d="M1238.999 1151.545c0 48.274-39.18 87.454-87.454 87.454-48.275 0-87.455-39.18-87.455-87.454 0-48.275 39.18-87.455 87.455-87.455 48.274 0 87.454 39.18 87.454 87.455z" stroke="#2481D7"/></g></svg>