<svg width="24pt" height="24pt" viewBox="0 0 2304 2304" xmlns="http://www.w3.org/2000/svg"><g stroke-width="160" fill="none" fill-rule="evenodd" stroke-linecap="round" stroke-linejoin="round"><path d="M822.685 1047.62c56.088 209.825 220.938 375.463 430.325 432.688M1789.674 1476.414l135.275 25.462V1228.09v.262c64.312-97.037 102.025-213.412 102.025-338.975 0-337.837-274.575-612.5-612.5-612.5-222.688 0-417.9 119.35-525.088 297.413" stroke="#2481D7"/><path d="M646.539 1976.888c74.55 32.637 156.187 50.05 242.987 50.05 337.838 0 612.5-274.663 612.5-612.5 0-337.925-274.662-612.5-612.5-612.5-337.925 0-612.5 274.575-612.5 612.5 0 125.562 37.713 241.937 102.025 338.887" stroke="#48578C"/><path stroke="#48578C" d="M379.086 1753.054v273.875l266.963-50.313"/></g></svg>