<svg width="24pt" height="24pt" viewBox="0 0 2304 2304" xmlns="http://www.w3.org/2000/svg"><g fill="none" fill-rule="evenodd"><path d="M495.63 1477.07c18.283 41.293 39.875 80.75 64.514 118.02" fill="#FFF"/><path d="M495.63 1477.07c18.283 41.293 39.875 80.75 64.514 118.02" stroke="#48578C" stroke-width="160" stroke-linecap="round" stroke-linejoin="round"/><path d="M909.742 1886.758c97.324 42.688 203.987 65.297 317.284 65.297 441.317 0 799.974-358.613 799.974-799.984C2027 710.701 1668.343 352 1227.026 352c-322.696 0-601.138 191.79-727.527 467.472" fill="#FFF"/><path d="M909.742 1886.758c97.324 42.688 203.987 65.297 317.284 65.297 441.317 0 799.974-358.613 799.974-799.984C2027 710.701 1668.343 352 1227.026 352c-322.696 0-601.138 191.79-727.527 467.472" stroke="#48578C" stroke-width="160" stroke-linecap="round" stroke-linejoin="round"/><path fill="#FFF" d="M560.444 1594.123v357.932l348.259-65.77"/><path stroke="#48578C" stroke-width="160" stroke-linecap="round" stroke-linejoin="round" d="M560.444 1594.123v357.932l348.259-65.77"/><path d="M277 1133.284h1308.872" fill="#FFF"/><path d="M277 1133.284h1308.872" stroke="#2481D7" stroke-width="160" stroke-linecap="round" stroke-linejoin="round"/><path d="M975.452 784.24h486.595" fill="#FFF"/><path d="M975.452 784.24h486.595" stroke="#2481D7" stroke-width="160" stroke-linecap="round" stroke-linejoin="round"/><path d="M930.952 1469.896h531.095" fill="#FFF"/><path d="M930.952 1469.896h531.095" stroke="#2481D7" stroke-width="160" stroke-linecap="round" stroke-linejoin="round"/></g></svg>