<svg width="24pt" height="24pt" viewBox="0 0 2304 2304" xmlns="http://www.w3.org/2000/svg"><g stroke-width="160" fill="none" fill-rule="evenodd" stroke-linecap="round" stroke-linejoin="round"><path stroke="#2481D7" d="M368.897 1537.862l467.233-544.68 397.712 556.364 318.17-238.442 318.17 238.442M1392.727 793.91c0 65.888-53.475 119.363-119.363 119.363-65.89 0-119.364-53.475-119.364-119.364 0-65.888 53.475-119.363 119.364-119.363 65.888 0 119.363 53.475 119.363 119.363z"/><path d="M806.943 1955.568C913.375 2002.261 1030.068 2027 1154 2027c482.761 0 875-392.239 875-875 0-482.682-392.239-875-875-875-482.682 0-875 392.318-875 875 0 179.375 54.011 345.625 145.886 484.193" stroke="#48578C"/><path stroke="#48578C" d="M424.833 1635.447V2027l381.564-71.973"/></g></svg>