<svg width="24pt" height="24pt" viewBox="0 0 2304 2304" xmlns="http://www.w3.org/2000/svg"><g stroke-width="160" fill="none" fill-rule="evenodd" stroke-linecap="round" stroke-linejoin="round"><path d="M1414.178 317.245c-82.904-26.148-171.143-40.228-262.617-40.228-482.471 0-874.517 392.046-874.517 874.517 0 179.276 53.87 345.435 145.694 483.87M804.622 1954.612c106.429 46.612 223.002 71.448 346.921 71.448 482.384 0 874.517-392.133 874.517-874.517 0-90.512-13.817-177.79-39.353-259.906" stroke="#48578C"/><path stroke="#48578C" d="M422.756 1635.02v390.996l381.202-71.885"/><path d="M1151.466 818.37v-60.342M1151.466 1542.968v60.342M970.37 1361.82c0 100.046 81.067 181.113 181.112 181.113s181.2-81.067 181.2-181.112-81.155-181.113-181.2-181.113c-100.045 0-181.112-81.155-181.112-181.2 0-100.044 81.067-181.112 181.112-181.112s181.2 81.068 181.2 181.112M1894.856 539.355c0 72.41-58.767 131.178-131.177 131.178S1632.5 611.765 1632.5 539.355s58.768-131.177 131.178-131.177 131.177 58.767 131.177 131.177z" stroke="#2481D7"/></g></svg>