<svg width="24pt" height="24pt" viewBox="0 0 2304 2304" xmlns="http://www.w3.org/2000/svg"><g stroke-width="160" fill="none" fill-rule="evenodd" stroke-linecap="round" stroke-linejoin="round"><g stroke="#2481D7"><path d="M528.34 2020.962h789.119M921.004 1666.534v355.508M365 979.29v182.113c0 276.629 242.678 500.809 542.132 500.809 196.646 0 368.847-96.702 463.868-241.48"/><path d="M1151.991 400.424C1102.427 326.591 1018.136 278 922.481 278c-152.56 0-276.234 123.608-276.234 276.086v552.172c0 152.478 123.674 276.086 276.234 276.086 101.811 0 190.68-54.98 238.665-136.939"/></g><path d="M1053.46 957.703c35.353-86.706 66.706-301.678 136.767-301.678 126.833 0 126.833 512.96 253.665 512.96 127.091 0 127.091-668.958 254.182-668.958 127.09 0 127.09 700.26 254.18 700.26" stroke="#48578C"/></g></svg>