<svg width="24pt" height="24pt" viewBox="0 0 2304 2304" xmlns="http://www.w3.org/2000/svg"><g stroke-width="160" fill="none" fill-rule="evenodd" stroke-linecap="round" stroke-linejoin="round"><path d="M1629.908 561.71C1490.494 388.15 1276.564 277 1036.674 277 617.517 277 277 617.705 277 1037.092c0 317.787 194.69 589.74 471.075 703.563" stroke="#48578C"/><path stroke="#48578C" d="M747.924 1739.657l.763.764L1038.05 2027l194.766-197.625M1186.92 1034.27c0 84.339-68.311 152.65-152.65 152.65-84.34 0-152.652-68.311-152.652-152.65 0-84.34 68.311-152.652 152.651-152.652s152.651 68.311 152.651 152.651z"/><path d="M1111.094 1568.049h648.767c147.537 0 267.139-119.602 267.139-267.14 0-147.537-119.602-267.139-267.14-267.139h-267.139l228.977-228.976M1492.222 1034.27l229.476 229.475" stroke="#2481D7"/></g></svg>