<svg width="24pt" height="24pt" viewBox="0 0 2304 2304" xmlns="http://www.w3.org/2000/svg"><g stroke-width="160" fill="none" fill-rule="evenodd" stroke-linecap="round" stroke-linejoin="round"><path d="M381.717 1564.641C316.36 1442.141 279 1302.141 279 1154c0-483 392-875 875-875s875 392 875 875-392 875-875 875c-162.141 0-312.641-44.359-442.141-121.359M381.712 1565.47l-44.646 406.465 374.428-62.563" stroke="#48578C"/><path stroke="#2481D7" d="M659.435 1344.217h228.26V963.783h-228.26zM1344.217 1562.467l-456.521-233.442V978.899l456.521-233.366zM1649.588 989.812c90.77 91.26 90.77 239.118 0 330.378M1367.217 1086.923c36.042 36.503 36.042 95.649 0 132.151"/></g></svg>