<svg width="24pt" height="24pt" viewBox="0 0 2304 2304" xmlns="http://www.w3.org/2000/svg"><g fill="none" fill-rule="evenodd"><path d="M582.592 427.296c0 85.76-69.52 155.28-155.28 155.28s-155.28-69.52-155.28-155.28 69.52-155.28 155.28-155.28 155.28 69.52 155.28 155.28zM1307.296 427.296c0 85.76-69.52 155.28-155.28 155.28s-155.28-69.52-155.28-155.28 69.52-155.28 155.28-155.28 155.28 69.52 155.28 155.28z" stroke="#2481D7" stroke-width="160" stroke-linecap="round" stroke-linejoin="round"/><path d="M2032 427.296c0 85.76-69.52 155.28-155.28 155.28s-155.28-69.52-155.28-155.28 69.52-155.28 155.28-155.28S2032 341.536 2032 427.296" fill="#48578C"/><path d="M2032 427.296c0 85.76-69.52 155.28-155.28 155.28s-155.28-69.52-155.28-155.28 69.52-155.28 155.28-155.28S2032 341.536 2032 427.296z" stroke="#48578C" stroke-width="160" stroke-linecap="round" stroke-linejoin="round"/><path d="M582.592 1152c0 85.76-69.52 155.28-155.28 155.28s-155.28-69.52-155.28-155.28 69.52-155.28 155.28-155.28 155.28 69.52 155.28 155.28" fill="#48578C"/><path d="M582.592 1152c0 85.76-69.52 155.28-155.28 155.28s-155.28-69.52-155.28-155.28 69.52-155.28 155.28-155.28 155.28 69.52 155.28 155.28z" stroke="#48578C" stroke-width="160" stroke-linecap="round" stroke-linejoin="round"/><path d="M1307.296 1152c0 85.76-69.52 155.28-155.28 155.28s-155.28-69.52-155.28-155.28 69.52-155.28 155.28-155.28 155.28 69.52 155.28 155.28zM2032 1152c0 85.76-69.52 155.28-155.28 155.28s-155.28-69.52-155.28-155.28 69.52-155.28 155.28-155.28S2032 1066.24 2032 1152zM1307.296 1876.704c0 85.76-69.52 155.28-155.28 155.28s-155.28-69.52-155.28-155.28 69.52-155.28 155.28-155.28 155.28 69.52 155.28 155.28z" stroke="#2481D7" stroke-width="160" stroke-linecap="round" stroke-linejoin="round"/></g></svg>