<svg width="24pt" height="24pt" viewBox="0 0 2304 2304" xmlns="http://www.w3.org/2000/svg"><g stroke-width="160" fill="none" fill-rule="evenodd" stroke-linecap="round" stroke-linejoin="round"><path d="M1446.692 1073.104c50.52 22.2 105.974 33.896 164.768 33.896 229.211 0 415.54-186.267 415.54-415.5S1840.671 276 1611.46 276C1382.33 276 1196 462.267 1196 691.5c0 85.216 25.618 164.147 69.296 229.95M1265 922v186l180-34.173" stroke="#2481D7"/><path d="M993 1231.5c0 131.732-106.769 238.5-238.5 238.5S516 1363.232 516 1231.5C516 1099.769 622.769 993 754.5 993S993 1099.769 993 1231.5zM277 2027c0-176.168 142.534-319 318.333-319h318.334c175.8 0 318.333 142.832 318.333 319" stroke="#48578C"/></g></svg>