<svg width="24pt" height="24pt" viewBox="0 0 2304 2304" xmlns="http://www.w3.org/2000/svg"><g fill="none" fill-rule="evenodd"><path d="M573 1871l-131-67M704.186 1803.875l-131.214 66.732M441.408 1803.258L277 1869.611V277h1249.002v398.117" stroke="#48578C" stroke-width="160" stroke-linecap="round" stroke-linejoin="round"/><path d="M1044 1524.5c0 274.753 220.733 497.5 493 497.5s493-222.747 493-497.5-220.733-497.5-493-497.5-493 222.747-493 497.5zM1684.026 1523H1536" stroke="#2481D7" stroke-width="160" stroke-linecap="round" stroke-linejoin="round"/><path d="M694 548v90M694 1265v90M551 1085.5c0 74.244 64.736 134.5 144.5 134.5S840 1159.744 840 1085.5 775.264 951 695.5 951 551 890.744 551 816.5 615.736 682 695.5 682 840 742.256 840 816.5" stroke="#48578C" stroke-width="160" stroke-linecap="round" stroke-linejoin="round"/><path fill="#FFF" d="M1296.13 1149.002v165.835-331.67z"/><path stroke="#2481D7" stroke-width="160" stroke-linecap="round" stroke-linejoin="round" d="M1527.244 1393.023v123.007-246.013z"/></g></svg>