<svg xmlns="http://www.w3.org/2000/svg" viewBox="0 278.625 611.641 235.109"><g fill="#48578c"><path d="M587.233 420.408c13.64 0 24.408-11.127 24.408-24.408 0-13.64-11.126-24.408-24.407-24.408h-68.2v-43.79h68.2c13.64 0 24.408-11.128 24.408-24.41 0-13.64-11.126-24.407-24.407-24.407h-92.967c-13.64 0-24.408 11.127-24.408 24.408v185.933c0 13.64 11.127 24.408 24.408 24.408h92.967c13.64 0 24.408-11.127 24.408-24.408 0-13.64-11.126-24.408-24.407-24.408h-68.2v-44.51h68.2zM412.427 278.625c-13.64 0-24.408 11.127-24.408 24.408v114.862l-95.12-129.58c-4.667-6.1-11.846-9.69-19.743-9.69-2.513 0-5.384.36-7.897 1.436-10.05 3.23-16.87 12.564-16.87 23.332v185.933c0 13.64 11.127 24.408 24.408 24.408 13.64 0 24.408-11.127 24.408-24.408V374.463l95.12 129.58c4.666 6.1 11.845 9.69 19.742 9.69 2.513 0 5.384-.36 7.897-1.436 10.05-3.23 16.87-12.563 16.87-23.33V303.032c.36-13.28-10.768-24.408-24.408-24.408zM188.805 278.625c-13.64 0-24.408 11.127-24.408 24.408v185.933c0 13.64 11.127 24.408 24.408 24.408 13.64 0 24.408-11.127 24.408-24.408V303.033c.36-13.28-10.768-24.408-24.408-24.408zM117.375 464.558h-68.2V303.033c0-13.64-11.127-24.408-24.408-24.408C11.127 278.625 0 289.752 0 303.033v185.933c0 13.64 11.127 24.408 24.408 24.408h92.967c13.64 0 24.408-11.127 24.408-24.408 0-13.64-10.768-24.408-24.408-24.408z"/></g></svg>