<?xml version="1.0" encoding="utf-8"?>
<!-- Generator: Adobe Illustrator 21.1.0, SVG Export Plug-In . SVG Version: 6.00 Build 0)  -->
<svg version="1.1" id="Layer_1" xmlns="http://www.w3.org/2000/svg" xmlns:xlink="http://www.w3.org/1999/xlink" x="0px" y="0px"
	 viewBox="0 0 96.5 79.1" style="enable-background:new 0 0 96.5 79.1;" xml:space="preserve">
<style type="text/css">
	.st0{fill:#48578C;}
</style>
<path class="st0" d="M54.1,4.9c-9.9-5.6-22.2-6.4-32.9-2.6C14.2,4.9,7.8,9.6,3.9,16C0.4,21.7-1,28.9,0.7,35.5
	c1.8,7.3,6.8,13.4,13,17.5c-1.2,3.4-2.3,6.7-3.4,10.1c3.9-2,7.8-4.1,11.6-6.2c4.7,1.5,9.6,2.2,14.5,2.1c-1.3-3.8-1.6-7.8-1-11.7
	c0.9-5.4,3.9-10.4,7.9-14.1c6.8-6.4,16.6-9.1,25.8-8.5C67.5,16.2,61.5,9.1,54.1,4.9z M27.5,20.3c-0.7,3.3-5.1,4.9-7.7,2.7
	c-3-2.1-2.2-7.4,1.4-8.5C24.6,13.2,28.6,16.7,27.5,20.3z M51.6,19.3c0,3.8-5.1,6.2-7.9,3.6c-3-2.1-2.1-7.3,1.4-8.4
	C48.1,13.3,51.8,16,51.6,19.3z"/>
<path class="st0" d="M93.4,42.5C91,37,86.5,32.7,81.2,30c-9.3-4.7-21-4.7-30.3,0.1c-6.5,3.3-11.9,9.3-13.4,16.5
	c-1.3,5.3-0.1,11.1,2.7,15.7c4.2,7,11.8,11.4,19.7,12.9c5.7,1.2,11.7,0.5,17.2-1.1c3.3,1.3,6.3,3.4,9.6,4.9
	c-0.8-2.8-1.7-5.6-2.7-8.3c3.6-2.6,6.9-5.8,8.9-9.8C95.9,55.3,96,48.3,93.4,42.5z M60.9,44.6c-0.8,2.6-4.6,3.4-6.4,1.4
	c-2-1.8-1.2-5.6,1.4-6.4C58.8,38.3,62.2,41.7,60.9,44.6z M80,44.9c-1,2.3-4.5,2.9-6.2,1.1c-0.8-0.8-1-1.9-1.4-2.9
	c0.4-1.8,1.7-3.7,3.7-3.8C78.9,38.9,81.5,42.4,80,44.9z"/>
</svg>
