<?xml version="1.0" encoding="utf-8"?>
<!-- Generator: Adobe Illustrator 19.2.1, SVG Export Plug-In . SVG Version: 6.00 Build 0)  -->
<svg version="1.1" id="Layer_1" xmlns="http://www.w3.org/2000/svg" xmlns:xlink="http://www.w3.org/1999/xlink" x="0px" y="0px"
	 viewBox="0 0 333 261.3" style="enable-background:new 0 0 333 261.3;" xml:space="preserve">
<style type="text/css">
	.st0{fill:#24374e;}
</style>
<g>
	<g>
		<path class="st0" d="M249.4,90.3c7.8,0,15.6,0,23.9,0c-0.2,1.4-0.2,2.5-0.5,3.6c-2.8,11.4-10.5,17.7-21.5,20
			c-10.5,2.2-21.1,2-31.4-1.6c-7.5-2.6-13.7-6.9-17.9-13.8c-0.2-0.4-0.6-0.7-1.4-1.7c0,5.9,0,11,0,16.5c-15,0-29.5,0-44.5,0
			c-0.3-5.7-0.2-11.5,0-17.6c2.7-0.2,5.2-0.3,7.8-0.5c0.2-1,0.4-1.7,0.4-2.5c0-5.5,0.1-11,0-16.4c-0.1-4.9-2.9-7.8-7.8-8.2
			c-6.6-0.6-12.1,2.8-12.9,9.1c-0.7,5.8-0.2,11.8-0.2,18c2.7,0.1,5.3,0.3,8.2,0.4c0,5.9,0,11.7,0,17.7c-15.1,0-29.9,0-45.2,0
			c0-5.8,0-11.5,0-17.7c2.4-0.1,4.8-0.3,7.1-0.4c1-2.5,1.2-22.7,0.2-27.1c-1.6-0.1-3.3-0.2-5-0.2c-1.7,0-2.7-0.5-2.7-2.4
			c0-4.5,0-9.1,0-13.6c0-1.7,1-2.2,2.5-2.2c10.4,0,20.8,0,31.1,0c1.8,0,2.5,0.7,2.5,2.5c-0.1,2.9,0,5.8,0,9.4c1.2-1,1.9-1.4,2.5-2.1
			c6.3-7,14.5-9.5,23.6-9.3c4.7,0.1,9.3,0.6,13.6,2.6c6.9,3.2,10.6,8.6,10.8,16.2c0.2,7.2,0.1,14.5,0.1,21.7c0,1.4,0.1,2.7,0.2,4.4
			c2.3,0,4.3,0,6.6,0c-0.6-2.9-1.3-5.7-1.7-8.5c-1.6-12.3,3.4-24,14.2-30c13.4-7.5,27.7-8.9,42.2-3.9c10.4,3.5,16.5,11,18.2,21.9
			c0.1,0.4,0,0.9,0,1.9c-7.9,0.9-15.8,1.8-24.1,2.7c-0.2-1.7-0.4-3.1-0.6-4.4c-0.8-6-4.1-9.4-9.3-9.6c-6-0.2-10.3,2.8-11,8.9
			c-0.6,5.6-0.6,11.4,0,17c0.7,6,4.5,8.8,10.3,8.8c6,0.1,10.1-3.4,10.7-8.5C249,91.2,249.2,90.9,249.4,90.3z"/>
		<path class="st0" d="M28.6,155.5c5.6-2.6,11.1-3.5,16.7-3.7c11.7-0.3,22.3,2.7,30.2,11.8c9.7,11.2,9.5,28.9-0.1,41.1
			c-4.9,6.2-11.2,10.2-18.7,12.2c-10.7,2.8-21.5,2.9-32.2,0.2C10.2,213.4,1.4,203,0,188.1c9-0.9,18.1-1.8,27.2-2.8
			c0.4,2.4,0.6,4.3,1,6.3c0.5,2.7,2.1,4.7,4.2,6.2c6.8,4.8,17.3,1.8,20.4-5.8c1.7-4.3,1.7-8.7,0.1-13c-1.4-3.9-4.1-6.6-8.1-7.5
			c-5.8-1.3-11.4-1.4-15.7,3.8c-0.6,0.7-1.8,1.3-2.7,1.2c-6.7-0.7-13.4-1.6-20.1-2.5c-0.4-0.1-0.8-0.4-1.5-0.7
			c0.7-7.1,1.3-14.2,2-21.2c0.8-8.3,1.8-16.7,2.6-25c0.4-4.1,0.4-4.2,4.6-4.2c20.4,0,40.8,0,61.2,0c1.3,0,2.5,0.1,4.3,0.3
			c-0.4,4.5-0.6,8.6-1.1,12.7c-0.8,6.5-0.8,6.5-7.4,6.5c-12.4,0-24.7,0-37.1,0c-4,0-4,0-4.4,4C29.3,149.2,29,152.1,28.6,155.5z"/>
		<path class="st0" d="M249.8,171.9c0.5-10.3,2.1-20.3,7-29.5c6.9-13.1,17.9-19.8,32.7-20.5c6.8-0.3,13.5,0.3,19.9,3.1
			c9.9,4.4,16.2,12.1,19.6,22.1c5.7,16.8,5.3,33.5-1.9,49.8c-12.4,28.1-46.6,27.8-61.7,14.5c-7.4-6.5-11.7-14.8-13.6-24.3
			C250.7,182.1,250.4,176.9,249.8,171.9z M305.4,171.2c-0.2,0-0.4,0-0.6-0.1c0-2.7,0.2-5.4,0-8c-0.4-5.3-0.6-10.7-2.8-15.7
			c-1.8-4-4.7-6.8-9.2-7c-4.6-0.2-8.2,1.9-10.4,5.9c-1.2,2.2-2.1,4.7-2.6,7.2c-2,11.2-2.3,22.5-0.6,33.8c0.5,3.2,1.9,6.6,3.9,9.2
			c4.9,6.4,13.8,5.6,17.8-1.4c1.2-2.1,2.2-4.5,2.6-6.8C304.3,182.5,304.8,176.8,305.4,171.2z"/>
		<path class="st0" d="M125,121.8c12.1-0.2,22.5,3.6,30.2,13.3c4.3,5.4,6.9,11.6,8.4,18.3c3.3,14.4,2.5,28.5-3.2,42.2
			c-10.3,24.5-41.6,32.4-62,15.8c-6.4-5.2-10.4-12-12.7-19.7c-4.4-15.2-3.9-30.3,1.8-45C93.9,130.4,107,121.8,125,121.8z
			 M138.1,170.7c-0.2,0-0.4,0-0.6-0.1c0-2.6,0.2-5.1,0-7.7c-0.5-5.5-0.6-11.2-3.2-16.3c-1.9-3.7-4.8-6.2-9-6.3
			c-4.4-0.2-8,1.9-10.1,5.7c-1.3,2.4-2.2,5.1-2.8,7.8c-2,9.5-1.7,19.2-1.2,28.9c0.2,4.5,1.1,9,3.8,12.9c4.8,7,14.3,6.8,18.5-0.5
			c1.2-2.1,2.2-4.4,2.6-6.8C137,182.5,137.5,176.6,138.1,170.7z"/>
		<path class="st0" d="M248.9,169c0.2,11.1-1.9,21.1-6.7,30.4c-13.5,26.1-49.4,25.8-64.3,8.2c-6.4-7.6-9.6-16.4-10.9-26.1
			c-1.3-9.8-0.6-19.6,2-29.1c2.1-7.4,5.5-14.1,11-19.6c6.8-6.9,15.1-10.5,24.7-10.8c5.1-0.1,10.3,0,15.3,1.1
			c12.8,2.9,20.7,11.6,25.2,23.6C248,154.1,249.2,161.8,248.9,169z M221.6,173.3c-0.3-6-0.3-10.7-0.9-15.3
			c-0.5-3.9-1.3-7.9-2.9-11.4c-3.6-7.6-12.4-8.6-17.7-2c-1.7,2.1-3,4.8-3.5,7.5c-2.5,11.4-2.8,22.9-1.2,34.4c0.4,3,1.6,6.2,3.1,8.8
			c4.3,7.3,14,7.4,18.4,0.1c1.6-2.6,2.7-5.8,3.2-8.8C220.9,181.8,221.2,176.8,221.6,173.3z"/>
		<path class="st0" d="M45.3,30.1c19.2,0,38.2,0,57.6,0c0,6.3,0,12.5,0,19.4c-3.3,0-6.7,0-10.4,0c0,15.6,0,30.5,0,45.9
			c3.6,0,6.9,0,10.5,0c0,6.2,0,11.9,0,17.9c-19.3,0-38.3,0-57.6,0c0-6,0-11.7,0-17.9c3.5,0,6.7,0,10.1,0c0.2-1.5,0.4-2.5,0.4-3.5
			c0-12.8,0-25.6,0-38.5c0-3.7-0.1-3.8-3.7-3.8c-2.2,0-4.4,0-6.8,0C45.3,42.9,45.3,36.6,45.3,30.1z"/>
		<path class="st0" d="M286.4,59.6c-1.9-4.3-3.5-8-5.1-11.7c-0.9-2.1-2-4.2-2.7-6.4c-0.8-2.5-2.3-3.1-4.7-2.9
			c-6.3,0.7-12.7,1.2-19.5,1.3c5.6-5,11.2-10,17-15.1c-3-7.1-6-14-9-20.9c0.2-0.2,0.3-0.3,0.5-0.5c6.4,3.8,12.9,7.6,19.6,11.6
			c5.8-5,11.6-10,17.3-15c0.2,0.1,0.4,0.2,0.5,0.3c-1.2,5.3-2.5,10.5-3.6,15.8c-1.7,7.9-2.6,5.8,4.1,9.9c4.5,2.8,9.2,5.5,14.5,8.7
			c-2.9,0.4-5,0.8-7.1,1c-4.1,0.3-8.1,0.6-12.2,0.9c-4,0.3-4.3,0.6-5.2,4.6c-1.2,5.4-2.4,10.9-3.7,16.3
			C287.1,58,286.8,58.5,286.4,59.6z"/>
		<path class="st0" d="M232.2,7.9c1.7,3.2,3.4,6.3,5,9.6c0.8,1.7,1.7,2.4,3.8,1.9c3.5-0.8,7-1.2,10.6-1.8c0.1,0.2,0.3,0.5,0.4,0.7
			c-2.3,2.4-4.5,4.9-7,7.1c-2,1.7-2,3.3-0.7,5.4c1.7,2.8,3,5.7,4.5,8.5c-0.2,0.2-0.3,0.4-0.5,0.6c-3.8-1.8-7.6-3.6-11.9-5.6
			c-2.9,3.2-5.9,6.5-8.8,9.7c-0.3-0.2-0.6-0.3-0.9-0.5c0.3-2.3,0.5-4.6,0.8-7c0.1-0.5,0.2-0.9,0.3-1.4c0.8-4.8,0.8-4.8-3.5-6.9
			c-2.6-1.3-5.1-2.5-7.7-3.8c0-0.3,0.1-0.5,0.1-0.8c3.3-0.6,6.5-1.4,9.8-1.7c2.6-0.3,3.6-1.4,3.8-4c0.2-3.3,0.9-6.7,1.4-10
			C231.7,8,232,7.9,232.2,7.9z"/>
		<path class="st0" d="M307,54c0.9,3,1.7,6,2.6,8.9c1.2,4.2,1.2,4.3,5.7,4.4c3,0.1,6,0,8.9,0c0.1,0.3,0.2,0.6,0.3,0.9
			c-2.9,1.9-5.6,3.9-8.6,5.6c-2.2,1.3-2.8,2.7-1.9,5.1c1.1,3.1,1.8,6.4,2.7,9.6c-0.2,0.1-0.4,0.2-0.6,0.4c-2.8-2.2-5.7-4.3-8.4-6.7
			c-1.4-1.2-2.5-1.3-4-0.2c-2.9,2.1-6,4-9.6,5.6c0.8-2.3,1.7-4.6,2.5-6.9c0.4-1.1,0.7-2.2,1.2-3.3c0.9-1.8,0.3-3-1.3-4.1
			c-2.9-2.1-5.6-4.4-8.2-7.1c1.9,0,3.8-0.1,5.7,0c1.6,0.1,3.3,0.2,4.9,0.4c2.1,0.3,3.2-0.5,3.9-2.6c1.1-3.4,2.4-6.7,3.7-10.1
			C306.5,54,306.7,54,307,54z"/>
		<path class="st0" d="M215.4,246.6c0.3,9.4-7.5,15.1-15,14.7c-8.4-0.4-14.4-6.2-14.5-14.7c-0.1-8.8,6.1-14.9,15-14.8
			C209.7,231.9,215.4,237.7,215.4,246.6z M191.9,246.4c0,5.3,2,8.7,6.1,9.7c3.4,0.8,6.9,0.6,9.3-2.4c3.1-3.8,3.1-8.2,1.3-12.5
			c-1.4-3.4-4.3-4.6-7.9-4.6C195.1,236.7,192,240.1,191.9,246.4z"/>
		<path class="st0" d="M133.3,260.8c-1.4,0.2-2.2,0.3-3,0.4c-1.9,0.2-2.7-0.7-2.7-2.6c0.1-3.5,0-7,0-10.5c0-4.1,0-8.1,0-12.2
			c0-1.1,0.1-2.3,0.2-3.8c4.6,0,9-0.6,13.3,0.5c3.5,0.9,5.9,2.9,6.4,6.5c0.5,3.4-0.8,6.1-3.5,8.2c-0.6,0.5-1.3,0.9-2,1.5
			c2.7,4,5.3,7.8,7.9,11.7c-4.8,1.3-5.8,1-8.2-2.7c-1.4-2-2.7-4-4-6.1c-1-1.7-2.3-2.1-4.5-1.2C133.3,253.8,133.3,257.1,133.3,260.8z
			 M133.3,245.9c2.2-0.2,3.9-0.3,5.5-0.6c2.1-0.4,3.1-1.9,3.3-4c0.1-1.7-0.3-3.6-2-4c-1.9-0.5-4-0.3-6.1-0.2c-0.2,0-0.6,1-0.6,1.5
			C133.3,240.8,133.3,243,133.3,245.9z"/>
		<path class="st0" d="M64.4,232.2c1.7,0,3.2,0,5,0c0.1,1.6,0.2,2.9,0.2,4.3c0,3.7,0,7.5,0,11.2c0,6.1,2,8.8,6.5,8.8
			c4.4,0,6.3-2.6,6.3-8.9c0-3.8,0-7.7,0-11.5c0-1.1,0.1-2.3,0.2-3.7c1.8,0,3.3,0,5,0c0.2,0.6,0.4,1.2,0.4,1.7c0,5.5-0.1,11,0,16.4
			c0.1,5.3-4.5,11.3-12.4,10.9c-6.7-0.3-11.3-4.4-11.5-11c-0.1-5.5,0-11,0-16.4C64,233.4,64.2,232.9,64.4,232.2z"/>
		<path class="st0" d="M282,93.3c5.9,0.1,10.3,4.8,10.1,10.6c-0.1,5.5-5,10.2-10.5,10c-5.6-0.2-10.3-4.9-10.2-10.4
			C271.5,97.9,276.3,93.2,282,93.3z"/>
		<path class="st0" d="M327.9,248.7c-3.1,0-6.1,0-9.4,0c0,2.6,0,4.8,0,7.7c3.5,0,6.8,0,10.1,0c1.9,0,3,0.8,2.5,2.7
			c-0.2,0.8-1.2,1.9-1.9,1.9c-5.3,0.2-10.7,0.1-16.3,0.1c0-9.8,0-19.2,0-29.2c5.6,0,11,0,16.5,0c1.6,0,1.8,1.1,1.8,2.4
			c0,1.4-0.6,2.2-2.1,2.2c-2.6,0-5.1,0-7.7,0c-3.1,0.1-3.2,0.2-3.3,3.1c-0.1,4.3,0,4.5,4.4,4.6c0.9,0,1.9,0,2.8,0
			C328.6,244.4,328.7,244.7,327.9,248.7z"/>
		<path class="st0" d="M259.3,251c0,3.5,0,6.5,0,9.8c-1.9,0-3.4,0-5.2,0c0-9.5,0-18.9,0-28.8c5.3,0,10.6-1,15.7,1.2
			c3.6,1.6,5.5,5.4,4.8,9.6c-0.7,4.4-3.9,7.4-8.6,7.9C263.9,250.9,261.9,250.9,259.3,251z M259.5,246.4c3.5,0.3,6.6,0.6,8.7-2.3
			c1.2-1.7,1-4.5-0.4-5.9c-2.4-2.4-5.3-1.7-8.3-1.2C259.5,240.2,259.5,243.1,259.5,246.4z"/>
		<path class="st0" d="M7.6,261.2c0-9.9,0-19.3,0-29c6,0,11.7,0,17.4,0c1.1,4,0.8,4.4-3,4.4c-2.8,0-5.6,0-8.7,0c0,2.6,0,4.8,0,7.7
			c2.2,0,4.3,0,6.5,0c1.6,0,3.1,0,3.1,2.3c0,2.1-1.5,2-2.9,2c-2.2,0-4.4,0-6.8,0c0,2.8,0,5,0,7.8c4.1,0,8,0,11.7,0
			c1.2,4.4,0.9,4.8-2.9,4.8C17.3,261.2,12.7,261.2,7.6,261.2z"/>
	</g>
</g>
</svg>
