<?xml version="1.0" encoding="utf-8"?>
<!-- Generator: Adobe Illustrator 19.2.1, SVG Export Plug-In . SVG Version: 6.00 Build 0)  -->
<svg version="1.1" id="Layer_1" xmlns="http://www.w3.org/2000/svg" xmlns:xlink="http://www.w3.org/1999/xlink" x="0px" y="0px"
	 viewBox="0 0 700.1 542.3" style="enable-background:new 0 0 700.1 542.3;" xml:space="preserve">
<style type="text/css">
	.st0{fill:#24374e;}
</style>
<g>
	<g>
		<path class="st0" d="M0,253.2c1.3-3.4,2.5-6.7,4-10.7c5,1.5,9.7,3,15,4.6c1.7-5,3.5-9.9,5.3-15.3c3.5,1,6.7,2,10.5,3
			c-1.7,5.4-3.2,10.5-4.8,15.8c8.6,2.8,17,5.6,25.3,8.3c3.5,1.1,6.9,2.3,10.5,3.2c2.7,0.7,5.5,0.9,7.7,1.2c5.6-3.7,5.2-9.4,7.2-14.6
			c2.4,0.7,4.7,1.3,6.8,1.9c2.1,3.3,1.9,6.7,1.4,10c-0.6,3.4-1.5,6.8-2.8,10.1c-3.6,8.9-9.1,12.8-20.3,9.8
			c-9.3-2.5-18.4-5.8-27.5-8.7c-4.4-1.4-8.9-2.8-13.5-4.3c-1,2.6-1.9,5-3,7.9c-2.3-0.6-4.4-1.2-6.9-1.8c0-3.7,0-7.2,0-11.1
			c-5-2.2-9.9-4.3-14.7-6.4C0,255.2,0,254.2,0,253.2z"/>
		<path class="st0" d="M310,5.2c0,6.8,0.2,13.6,0,20.4c-0.3,12.3-0.6,24.6-1.1,36.9c-0.4,12.3-1,24.6-1.4,36.9
			c0,0.3,0.3,0.6,0.6,1.2c3.3,1.2,7.3-0.6,11,1.5c-4.2,1.7-19.1,1.4-24.8-0.4c1.4-2,3.2-1.2,4.9-1c1.6,0.2,3.3,0,5.4,0
			c0.3-4.9,0.8-9.6,1-14.4c0.2-6.7,0.2-13.3,0.4-20c0.5-16,1.2-31.9,1.7-47.9c0.1-3.5,0-6.9,0-10.8c-3.8-0.2-7.4-0.4-11.2-0.6
			c-0.2-0.7-0.3-1.2-0.5-1.8C300.7,5.2,305.3,5.2,310,5.2z"/>
		<path class="st0" d="M368.3,275.2c19.8-0.5,36.9,6,50.6,20.4c9.7,10.3,15.5,22.8,19.1,36.3c2.6,9.8,3.8,19.9,4.4,30
			c1,16.6-0.3,32.9-4.4,49c-3.9,15.3-10.6,29.1-22.3,40c-10.9,10.3-24,15.8-38.9,17.5c-9.4,1.1-18.6,0.5-27.7-1.6
			c-22-5.2-37.1-18.8-46.2-39.1c-5.4-12.1-8.4-24.9-9.2-38.1c-0.4-7.6-1-15.3-0.8-22.9c0.6-19.1,3.8-37.8,13-54.8
			c11.3-20.9,28.7-33.3,52.3-36.6C361.6,274.8,365,275.2,368.3,275.2z M335.7,374.2c0.4,2.5,0.4,5,1.1,7.4
			c3.5,12.1,11.5,19.6,23.6,22.6c12.3,3.1,22.8-0.7,31.3-9.6c9.6-10.1,10.8-24.1,3.5-35.9c-7-11.3-22-18.4-36.4-13.9
			C343.4,349.5,335.3,363.3,335.7,374.2z M324.2,336.2c24.1-24.5,62.7-24.8,87.4,0.8c-0.3-1.6-0.5-2.9-0.8-4.1
			c-2.1-9.3-5.2-18.1-10.6-26.2c-13.9-20.6-42.5-19.7-56.7-8.6C331.2,307.7,327,321.6,324.2,336.2z M326.1,414.4
			c0.1,1.2,0,2.2,0.3,3.1c2.2,7.2,5,14.1,9.5,20.2c5.6,7.5,12.7,12.8,22,14.3c4.7,0.8,9.6,1,14.4,0.9c7.7-0.2,14.7-2.7,20.8-7.4
			c10.6-8.3,14.8-20,17.9-33C387.4,435.6,352.9,438.1,326.1,414.4z"/>
		<path class="st0" d="M647.2,278.3c7.7,0,14.9,0,22.6,0c0.2,12.8,0.1,25.4,0.1,38c0,12.8,0,25.6,0,38.5c0,12.6,0,25.2,0,38.4
			c10.1,0,19.7,0,29.1,0c1.2,3.9,1.4,12.7,0.4,18.8c-9.5,0.4-19.1-0.1-28.6,0.3c-1.2,3.6-1.5,29.1-0.5,37c7.9,1.5,15.9,3,24.3,4.6
			c0,3.8,0,7.2,0,11.3c-12.6,0.6-25.4,0.2-38.1,0.3c-12.6,0.1-25.3,0-38.3,0c0-3.9,0-7.5,0-11.6c7.9-1.5,16-3,24-4.5
			c1.1-3.9,1.2-31.2,0.2-37.1c-13.8,0-27.7,0-41.7,0c-13.8,0-27.5,0-41.6,0c0-6.1,0-11.5,0-17.3
			C588.4,356.1,617.8,317.2,647.2,278.3z M642.9,393c0-27,0-53.6,0-81.4c-20.7,27.5-40.7,54.2-61.2,81.4
			C602.5,393,622.4,393,642.9,393z"/>
		<path class="st0" d="M155.9,303.1c0-4.8,0-9.1,0-13.6c8-4.9,16.6-8.4,25.5-10.9c17.5-5,35.2-5.8,52.5,0.4
			c19,6.8,28.8,20.8,31.3,40.7c2.5,20.1-4.9,36.8-16.5,52.3c-11,14.8-24.3,27.4-38,39.6c-11.5,10.3-23.2,20.4-35.3,31.1
			c24,0,47.4,0,71.2,0c4-8.3,8-16.7,12.1-25.3c4.2,0,8.3,0,13,0c-0.7,15.9-2.1,31.7-3.1,47.7c-40.3,0-80.3,0-120.4,0
			c-0.9-4.5-0.4-8.9-0.4-13.5c2.2-2.3,4.3-4.6,6.5-6.8c16.7-17,33.5-33.8,50.1-51c10.5-10.9,20.3-22.6,26.9-36.4
			c4.1-8.5,6.4-17.5,6.3-27c0-3.6-0.5-7.3-1.3-10.9c-2.7-11.6-10.1-18.9-21.3-22.3c-14.1-4.2-28.3-3.2-42.3,0.5
			C167.3,299.3,162,301.2,155.9,303.1z"/>
		<path class="st0" d="M519,449c9.3,1.6,18.2,3.1,27.2,4.7c1,3.9,0.8,7.4,0.2,11.3c-27.5,0-54.7,0-82.4,0c0-3.7,0-7.2,0-11.3
			c8.7-1.5,17.5-3,26.1-4.5c1-3.8,1.3-137.9,0.4-145.5c-9.6,0.9-19.3,1.8-29.4,2.7c0-4,0-7.6,0-11.6c3.5-1.3,7.1-2.8,10.8-4.2
			c11.7-4.4,23.4-8.8,35-13.3c3.7-1.4,7.4-1.5,11.9-1c0,7.3,0.1,14.4,0.1,21.5c0,7.2,0,14.3,0,21.5c0,7.2,0,14.3,0,21.5
			c0,7.3,0,14.7,0,22c0,7.2,0,14.3,0,21.5s0,14.3,0,21.5s0,14.3,0,21.5C519,434.3,519,441.5,519,449z"/>
		<path class="st0" d="M40.6,444.3c0.1-4.2,0-8.3,0.2-12.4c0.2-3.4,1.9-6.3,4.4-8.8c9.2-9.4,25.4-13,37.1,1.4
			c2.6,3.2,4.7,6.8,6.8,10.4c1.4,2.4,2.4,5.1,3.5,7.7c5.1,11.9,10.2,23.8,15.4,35.9c-2,2.3-4.9,2.6-7.8,4.1c-2.1-2.7-4.3-5.4-6.3-8
			c-3.7,0.5-59.2,24.3-64,27.4c0.4,3.1,0.9,6.3,1.4,10c-2.6,1.2-5.1,2.3-7.9,3.6c-2.1-4.8-4.1-9.1-6-13.5
			c-3.6-8.4-7.1-16.8-10.8-25.2c-2.4-5.4-4-11-4.4-16.8c-0.6-8.2,2.2-15.1,9.6-19.4c3.6-2.1,7.4-3.6,11.7-3.8
			c5.3-0.2,9.8,1.1,13.8,4.7C38.4,442.5,39.5,443.4,40.6,444.3z M57.6,468.5c9.8-4.4,19.4-8,28.9-12.8c-2.8-5.6-5-10.8-7.8-15.6
			c-2.7-4.5-7.1-6.8-12.3-5.4c-3.8,1-7.5,2.7-10.8,4.9c-4.2,2.8-5.6,7.1-4.5,12.2C52.2,457.5,54.9,462.6,57.6,468.5z M48.5,472.4
			c-2.5-4.9-4.4-9.3-6.8-13.4c-2.1-3.6-5.5-5.1-9.7-4.9c-4,0.2-7.4,1.7-10.6,3.9c-4.8,3.2-6.5,6.9-4.9,12.4
			c1.3,4.6,3.4,8.9,5.3,13.6C30.7,480.1,39.2,476.4,48.5,472.4z"/>
		<path class="st0" d="M107.3,193.6c2.8,1.5,5.1,2.8,7.3,4c1.1,3.9,0.4,7.5-0.4,11c-2.2,9.5-6.7,17.8-13.8,24.4
			c-7.1,6.7-15.6,9.4-25.3,7.4c-12.3-2.5-22.8-8.2-30.1-18.8c-4.9-7.2-6.4-15.2-4.3-23.8c1.8-7.5,5.6-13.9,11.2-19.1
			c6.6-6.2,14.5-6.9,22.9-5.2c6.1,1.2,11.6,4,17.5,7.3c-6.9,13.2-14.8,25.6-21.9,38.5c10.2,6.8,22.9,5.3,29.2-6
			c2.5-4.6,4.2-9.7,6.2-14.6C106.4,197.2,106.7,195.6,107.3,193.6z M61.2,215.1c3.3-3.9,11.7-19.7,12.6-23.5
			c-3.1-2.3-6.7-3.6-10.6-3.5c-1.9,0.1-4,0.5-5.6,1.5c-5.8,3.6-7.6,11.9-3.8,17.5C55.8,210.1,58.6,212.4,61.2,215.1z"/>
		<path class="st0" d="M57.5,350.1c1.2-0.5,1.7-0.8,2.1-0.8c2.1-0.2,4.3-0.4,6.6-0.5c0.7,0.9,1.5,1.8,2.2,2.7
			c6.7,10.4,9.1,21.6,7.1,33.8c-1.7,10.8-7.9,18.1-17.8,22.3c-10.8,4.5-21.9,5.7-33.1,1.9C12.2,405.2,5.9,395.9,4,383.5
			c-0.6-3.6-0.4-7.3-0.1-11c0.7-7,4.3-12.5,10.1-16.4c6.2-4.2,13.2-6.1,20.6-7.1c0.9-0.1,1.9,0.1,3.3,0.2
			c1.8,14.6,3.6,29.1,5.5,43.8c4.5-0.8,8.4-2,11.9-4.3c4.9-3.3,7.5-7.9,7.8-13.8c0.3-6.9-1.2-13.5-3.7-20
			C58.7,353.4,58.1,351.9,57.5,350.1z M30.1,368.1c-6.3,0.7-11.7,1.7-14.6,7.2c-2.5,4.8-1.3,9.6,1.9,13.6c4.2,5.2,10.1,5.8,16.7,4.8
			C32.7,385.2,31.4,377,30.1,368.1z"/>
		<path class="st0" d="M25.5,322.7c1.4-2.2,3.1-4.6,4.4-7.2c1.7-3.4,3-7,4.6-10.5c0.7-1.7,1.5-3.3,2.4-4.9
			c4.4-7.8,10.9-11.3,19.9-10c8.5,1.2,14.4,5.6,17.4,13.8c2.9,8,2.3,16,0.5,24.1c-1.2,5.3-2.6,10.6-5.3,15.1c-6.6,0-12.8,0-19.7,0
			c0.5-3.8,1-7,1.4-10.4c3.5-0.7,6.7-1.4,10.4-2.2c3.5-5.5,5.3-11.5,3.4-18.2c-0.9-3.2-3-5.1-6.3-5.7c-3.3-0.6-6,0.7-7.7,3.5
			c-1.8,3-3.1,6.2-4.7,9.4c-1.7,3.4-3,7.1-4.9,10.3c-3.9,6.7-9.9,10.2-17.8,9.6c-7.6-0.6-13.7-3.9-17-11.2c-1.1-2.4-2.1-5-2.4-7.5
			C3,311.5,4.4,299.5,9.7,289c5.5,0.6,11.2,1.3,17,1.9c0.7,3.6,0.7,6.7-0.8,9.9c-3,0.6-5.9,1.2-8.9,1.8c-2.9,4.4-3.4,9.4-2.8,14.4
			C14.9,322,17.9,323.7,25.5,322.7z"/>
		<path class="st0" d="M377.6,81.5c-1.6,1.2-3.6,2.4-5.1,4.1c-4,4.4-2.8,9.8,2.6,12.3c1,0.5,2.2,0.8,3.3,1.1
			c6.1,1.8,12.2,3.4,18.2,5.3c4,1.2,7.8,2.6,11,5.5c4.3,3.9,5.4,8.6,4.1,14c-2.3,8.8-9.2,14.7-18.7,15.4
			c-10.4,0.8-20.2-1.5-29.2-6.6c-2.7-1.5-5.1-3.7-7.1-6.1c-6.6-7.9-3.1-18,2.9-22c3.5-2.3,7.7-3.7,11.8-5.7c-2-2.8-4.7-6-3.3-10.5
			c1.4-4.3,4.9-6.5,8.3-8.5c-0.9-2.9-2.1-5.5-2.6-8.3c-2.8-17.2,11.8-28,25.5-24.9c1.5,0.3,2.9,0.7,4.3,1.1
			c7.4,2.4,14.8,4.8,22.2,7.2c1.1,0.4,2.2,1,3.1,2c-4.7,0.7-8.7-2.2-13.1-2.6c1.6,3.4,3.4,6.5,4.4,9.9c3.3,11.2-4.4,23.1-15.9,25.1
			c-9.2,1.5-17.5-0.5-24.6-6.6c-0.4-0.3-0.8-0.6-1.2-0.9C378.5,81.7,378.3,81.7,377.6,81.5z M387,137.1c12.6,0,19.7-5,22.2-14.4
			c1.2-4.6,0.1-8.5-3.5-11.1c-2.9-2.1-6.3-3.7-9.7-4.9c-4.7-1.7-9.6-2.7-14.3-4.3c-7.5-2.5-14.1-0.5-20.2,3.6
			c-3.6,2.5-5.4,6.2-5.6,10.6c-0.3,6.5,3.5,10.5,8.5,13.6C371.8,134.9,380.1,136.5,387,137.1z M394.8,48.4
			c-7.8,0.5-14.1,4-17.4,11.8c-3.1,7.5-1.7,15.3,4,20.7c6.1,5.6,13.5,7.6,21.7,6.2c7.2-1.2,12.1-5.4,14.4-12.3
			c2.4-7.1,0.6-13.5-4.5-18.8C407.9,50.9,401.4,49,394.8,48.4z"/>
		<path class="st0" d="M153,164.6c-5-2.5-9-6.5-13.5-9.7c-4.6-3.3-9-6.9-13.5-10.3c-4.4-3.3-8.8-6.6-13.1-10
			c-4.5-3.4-9-6.9-13.7-10.5c-2.3,1.2-4.5,2.5-7.1,3.9c1.4-3.7,11.6-11.5,16.6-13.1c-1.5,3.7-5.2,4.4-7.2,7.6
			c15.8,12.1,31.7,24.3,48.4,37.1c-0.3-2-0.3-3-0.6-3.9c-6-17.6-12-35.2-17.9-52.9c-0.6-1.7-2-3.5-0.4-6.1
			c9.5,5.9,18.1,12.7,27,18.9c8.9,6.2,17.6,12.5,27.1,19.3c-7.6-20-14.9-39.1-22.3-58.5c-2.9,1.9-5.5,3.7-8.6,5.8
			c0.1-1.2-0.1-2.1,0.1-2.3c4.8-3.6,9.6-7.2,14.4-10.7c0.2-0.1,0.6,0,1.4,0.1c-0.6,2.8-3.6,3.3-4.9,5.9c1.1,3.1,2.4,6.7,3.7,10.2
			c6,16,12.1,32,18.1,48.1c0.6,1.6,2.3,3.5-0.1,5.9c-17.3-12.3-34.6-24.6-52.7-37.4c0.3,1.8,0.4,2.8,0.7,3.7
			c5.9,17.6,11.9,35.3,17.8,52.9c0.6,1.7,1,3.4,1.5,5C153.8,164,153.4,164.3,153,164.6z"/>
		<path class="st0" d="M243.7,74.4c-16.5,6.1-32,11.9-47.7,17.8c2.3,7.7,5.5,14.5,10.9,19.8c5.9,5.8,13.3,7.3,21.3,5.5
			c8.3-1.9,15.6-5.5,21.6-11.7c0.6-0.6,1.4-1.1,2.8-1.2c-0.3,0.8-0.3,1.8-0.9,2.4c-9.6,9.9-21.2,14.9-35,13.2
			c-6.6-0.8-11.5-5-15.3-10.4c-5.2-7.3-8.2-15.5-9.7-24.3c-1-6.3-0.6-12.2,2-18c4.4-9.9,12.8-14.2,23-15.2c9.1-0.8,16.1,3.6,21,11.1
			C239.8,66.7,241.5,70.3,243.7,74.4z M239.6,73.5c-3.7-12.8-15.1-23.4-31.2-17c-13.5,5.4-18,21.2-12.5,33.2
			C210.5,84.3,225,78.9,239.6,73.5z"/>
		<path class="st0" d="M482.5,119.9c-14.4-8.6-28.5-17.1-43-25.8c-6.1,8.7-10.2,17.7-8.1,28.4c1.1,5.8,5,10.1,9.7,13.5
			c5.8,4.3,12.2,7.4,19.5,8.2c1.4,0.2,2.8,0.7,5,1.3c-3.6,1.6-6.3,1-9,0.4c-6.8-1.5-12.8-4.6-18.2-8.9c-9.3-7.4-12.6-16.9-9-28.4
			c3.1-9.8,8.2-18.6,16.1-25.4c15.9-13.8,33.2-5.6,40.4,5.1c2.7,4,3.6,8.5,3.3,13.3C488.8,108.2,486.6,114.1,482.5,119.9z
			 M481.7,116.6c4.7-8.6,7.8-16.9,3-25.6c-4.7-8.5-12.4-12.9-22.2-12.7c-9.6,0.3-16,5.9-21.7,13.7
			C454.6,100.3,467.8,108.3,481.7,116.6z"/>
		<path class="st0" d="M538.8,233.2c-0.9-0.1-1.8,0.1-2.4-0.2c-11.5-7.1-19-17-20.5-30.7c-0.8-8.1,3.2-14.6,8.8-19.9
			c7.7-7.3,16.5-12.8,27.2-14.8c16.4-3.1,32.1,10.5,31.1,27.2c-0.3,5.2-2.6,9.6-5.8,13.5c-3,3.6-6.5,6.7-11.1,9.3
			c-9.5-13.9-18.1-28.2-27.4-42.2c-5.8,3-10.8,6.7-14.6,11.6c-7.4,9.3-7.6,17-2.2,27.3c3.4,6.6,8,12.2,14.5,16.1
			c0.7,0.4,1.4,1,2,1.5C538.6,232.1,538.6,232.5,538.8,233.2z M566.4,213.9c11.4-6.2,19.9-19.1,9.9-34c-7-10.4-21.5-14.6-35.2-5.3
			C549.6,187.7,558,200.9,566.4,213.9z"/>
		<path class="st0" d="M512,107.4c-1.8-2.1-3.3-3.8-5.3-6.2c4.5,1.4,13.5,9.8,15.8,14.3c-4.1-0.4-5.2-4.5-8.7-5.9
			c-8.2,19.5-16.5,39-24.8,58.7c4.1-0.4,43.1-17.7,58.5-25.8c-1.1-3.2-5.3-4.3-5.8-8.2c3.9,1.6,12.8,10.2,14.6,14.2
			c-3-0.3-4-3.1-6.4-4.3c-5.2,2.3-10.6,4.7-16,7.2c-5.3,2.4-10.6,4.8-15.9,7.3c-5.4,2.5-10.8,5.1-16.3,7.4
			c-5.2,2.2-10.1,5.3-16.9,6.9c4.4-12.1,9.4-22.7,13.8-33.5C502.8,128.9,507.4,118.3,512,107.4z"/>
		<path class="st0" d="M535.7,237.9c3.2,2.7,3.2,6.6,5.4,9.9c19.2-7.5,38.4-15.1,57.7-22.7c0-4-3.2-6.9-2.6-10.9
			c2.7,2,3.8,4.3,5.9,12c-1.1,0.6-2.2,1.2-3.3,1.7c-1.2,0.6-2.5,1-3.5,1.4c3.5,2.7,7.4,5,10.5,8.2c3.2,3.3,5.5,7.3,5.2,12.4
			c-2.3,0-2-1.7-2.4-2.8c-3-8.2-8.7-13.6-17.6-16.2c-16,6.3-32.4,12.7-48.9,19.2c1.3,3.8,2.4,7.2,3.6,10.6c-0.2,0.2-0.5,0.3-0.7,0.5
			c-0.6-0.4-1.5-0.6-1.7-1.2c-2.7-6.6-5.2-13.3-7.8-20C535.2,239.7,535.5,239,535.7,237.9z"/>
		<path class="st0" d="M267.3,105.5C264,85,260.8,64.7,257.4,44c-3.9,0.4-7.4,0.7-10.9,1c-0.1-0.4-0.1-0.7-0.2-1.1
			c3.9-2.4,8.5-1.9,12.9-3.1c0.7,2.9,1.2,5.3,1.9,8.3c4.6-6.3,10.1-10.3,17.2-11.7c2-0.4,4.2-1.1,6.7,0.7c-1.3,0.5-2,1-2.8,1.1
			c-9,0.8-15.6,5.2-20.6,13.5c2.2,17.1,5.4,34.5,8.1,51.7c4,1.5,7.6-1.8,11.3,0.2c-0.5,0.6-0.7,1.2-1.1,1.2
			c-7,1.2-14.1,2.3-21.2,3.3c-0.5,0.1-1.1-0.3-2-0.6c1.2-2.1,3.1-1.5,4.6-1.8C263.1,106.5,264.7,106.1,267.3,105.5z"/>
		<path class="st0" d="M353.8,38.8c-2.2,0.2-4.4,0.4-7.1,0.6c-9.5,9.3-19.2,18.8-29.1,28.5c9.4,11.6,18.4,22.8,27.1,33.5
			c3.6,1.2,6.9-0.3,9.9,1.7c-3,1.5-3,1.5-11,0.9c-9.5-11.7-19.2-23.7-29.3-36.2c9.8-9.7,19.5-19.1,29.4-28.9c-3-0.3-5.3-0.6-8.4-0.9
			c3.7-2,12.1-1.9,18.5-0.3C353.8,38.1,353.8,38.4,353.8,38.8z"/>
		<path class="st0" d="M381.2,374.6c-0.7,1.7-1.1,3.5-2.1,5c-4.5,7-14.5,7.9-20.4,1.9c-3.1-3.2-3.9-7-2.4-11
			c1.5-4.2,4.7-6.9,9.2-7.5C373.8,361.9,378.8,365.6,381.2,374.6z M370.9,371.8c-2.1,0-3.7,0-5.7,0c0.1,1.9,0.2,3.2,0.3,5.1
			c2-0.1,3.4-0.2,5-0.3C370.6,375,370.7,373.9,370.9,371.8z"/>
	</g>
</g>
</svg>
