<?xml version="1.0" encoding="utf-8"?>
<!-- Generator: Adobe Illustrator 19.2.1, SVG Export Plug-In . SVG Version: 6.00 Build 0)  -->
<svg version="1.1" id="Layer_1" xmlns="http://www.w3.org/2000/svg" xmlns:xlink="http://www.w3.org/1999/xlink" x="0px" y="0px"
	 viewBox="0 0 631.9 336.6" style="enable-background:new 0 0 631.9 336.6;" xml:space="preserve">
<style type="text/css">
	.st0{fill:#24374e;}
</style>
<g>
	<g>
		<path class="st0" d="M2.4,44.9C1.7,20.4,23.3-0.4,48,0c24.6,0.4,45.2,21.3,44.5,46.7c-0.6,19.7-18,43.8-46.3,43.4
			C22.4,89.7,1.1,67.9,2.4,44.9z"/>
		<path class="st0" d="M123.5,118c14.8,0,29.4-0.8,43.8,0.2c22.9,1.5,29,20.3,24.9,33.9c-1.6,5.2-5.8,9.7-9,14.8
			c8.6,4.9,12.2,13.4,11.4,24.1c-0.9,13.1-8.9,22.7-21.9,24.8c-5.5,0.9-11.3,1-16.9,1.1c-10.6,0.2-21.3,0-32.3,0
			C123.5,183.9,123.5,151.2,123.5,118z M142.5,199.3c7.8,0,15.1,0.4,22.4-0.1c6.2-0.4,10.2-5.2,10.4-11.3c0.2-6.1-3-11.4-9-11.9
			c-7.8-0.7-15.8-0.2-23.8-0.2C142.5,183.6,142.5,191.2,142.5,199.3z M142.6,157.6c7.3,0,14.3,0.3,21.2-0.1
			c6.1-0.4,9.8-4.7,10.1-10.4c0.3-6-3.1-10.9-9.4-11.5c-7.2-0.7-14.5-0.2-22-0.2C142.6,142.8,142.6,149.9,142.6,157.6z"/>
		<path class="st0" d="M316,264.9c-1.3,4.1-2.5,7.5-3.6,11c-5.9,17.8-12,35.6-17.7,53.5c-1.1,3.3-2.6,4.3-6,4.3
			c-10.7-0.1-10.7,0.1-14.5-10c-3.4-9-6.6-18.1-9.9-27.2c-0.5-1.5-1.2-3-2.2-5.5c-4.2,11.6-8,22.1-11.9,32.6
			c-4.7,12.5-0.9,9.5-14.9,10c-2.8,0.1-4.4-0.6-5.4-3.7c-6.9-21-13.9-42-21-62.9c-0.2-0.5-0.2-0.9-0.3-1.8c6.5,0,12.9,0,19.6,0
			c3.8,13.3,7.6,26.7,11.8,41.3c1.4-3.6,2.5-6.1,3.4-8.7c3.5-9.7,7.1-19.4,10.4-29.1c0.9-2.8,2.2-3.9,5.3-3.9c10,0,10-0.1,13.3,9.4
			c3.7,10.4,7.5,20.8,12.3,31.2c2.5-8.9,5.1-17.8,7.7-26.6c1.3-4.5,1.5-10.5,4.5-12.8c3-2.3,8.9-0.9,13.5-1
			C312,264.8,313.6,264.9,316,264.9z"/>
		<path class="st0" d="M213.9,333.5c-6.7,0-12.7,0.1-18.6-0.1c-0.9,0-1.9-1-2.6-1.7c-0.4-0.4-0.4-1.2-0.7-1.9
			c-1.8-4.3-2.5-10.2-5.7-12.3c-3.3-2.2-9-0.7-13.7-0.7c-5.7,0-11.3,0.2-17-0.1c-3.5-0.2-5.5,0.8-6.4,4.4c-0.8,3.2-2,6.4-3.6,9.3
			c-0.8,1.4-2.8,2.8-4.3,2.9c-5.5,0.3-11,0.1-17.3,0.1c0.7-2.1,1.2-3.7,1.8-5.3c11-27.8,22.2-55.6,33.1-83.5c1.6-4,3.6-5.1,7.6-5
			c10.3,0.3,10.3,0.1,14,9.4c10.7,26.9,21.4,53.8,32.1,80.7C213,330.7,213.3,331.6,213.9,333.5z M169.9,269.1c-0.4,0-0.8,0-1.2,0
			c-3.9,10.4-7.9,20.9-12,31.9c8.6,0,16.5,0,24.9,0C177.7,290.1,173.8,279.6,169.9,269.1z"/>
		<path class="st0" d="M488.6,268.9c0-9.4,0-19,0-28.8c6.3,0,12.2,0,18.4,0c0,31.1,0,61.8,0,93c-5.8,0-11.5,0-17.6,0
			c-0.2-1.5-0.3-3.1-0.6-5.5c-5.4,4.7-11.5,6.6-18.4,6.6c-15.3-0.2-23.9-7.1-25.3-22.4c-0.8-8.7-0.7-17.7,0.1-26.4
			c1.5-16.4,13.8-22.5,28.8-21C478.8,264.8,483.3,267.2,488.6,268.9z M462.7,298.4c0.6,4.3,0.8,8.4,1.8,12.4
			c1.3,5.2,5.2,7.8,10.8,7.9c5.8,0.1,10.3-2.4,11.7-7.4c2.2-8.2,2.4-16.5-0.1-24.7c-1.5-5-5.3-7.1-11.4-7c-5.8,0-9.4,2.1-10.8,7
			C463.6,290.5,463.4,294.5,462.7,298.4z"/>
		<path class="st0" d="M123.5,0.1c20.2,0,40,0,60.2,0c0,5.2,0,10.3,0,15.9c-14.2,0-28.1,0-42.3,0c0,7.4,0,14.3,0,21.7
			c12,0,23.8,0,35.9,0c0,5.5,0,10.6,0,16.1c-11.9,0-23.7,0-35.8,0c0,7.5,0,14.6,0,22.2c13.9,0,27.8,0,42.1,0c0,5.6,0,10.6,0,16.1
			c-19.9,0-39.8,0-60.1,0C123.5,61.6,123.5,31.1,123.5,0.1z"/>
		<path class="st0" d="M396.2,87.4c0,10.2,0,19.8,0,29.7c-5.7,0-11,0-16.7,0c0-30.4,0-61,0-91.9c5.1,0,10.3,0,15.7,0
			c0.2,1.5,0.4,2.9,0.6,5.1c6.9-5.9,14.4-7.3,22.6-5.5c8.5,1.9,14.1,7,15.8,15.4c2.4,12.4,2.7,24.9-0.1,37.2
			c-3.1,14.1-21.1,20.8-33.8,13C399.2,89.6,398,88.7,396.2,87.4z M395.8,58.6c0.1,0,0.2,0,0.3,0c0.1,2.7,0.2,5.3,0.4,8
			c0.1,1.3,0.5,2.6,0.8,3.9c1.4,4.9,4.7,7.4,9.9,7.4c5.4,0.1,8.8-2,10.2-7c2.3-8.2,2.4-16.5,0-24.6c-1.4-4.8-5.3-7.3-10.2-7.2
			c-4.9,0.1-8.7,2.8-9.8,7.6C396.5,50.6,396.3,54.6,395.8,58.6z"/>
		<path class="st0" d="M329.3,284.1c-3.9-3.5-7.6-6.8-12.2-10.9c3.8-2.4,6.8-5.2,10.3-6.4c12.6-4.3,25.3-4.1,37.5,1.3
			c7,3.1,11,9,11.2,16.5c0.4,15.8,0.1,31.7,0.1,47.5c0,0.3-0.3,0.6-0.5,1.2c-5.5,0-11.1,0-17,0c-0.3-1.5-0.5-3-0.9-5
			c-8.4,6.6-17.7,6.8-27.3,4.7c-10.1-2.2-15.9-9.6-16-20.1c-0.1-9.4,5.5-16.7,15.4-18.8c4.8-1.1,9.9-1,14.9-1.2
			c4.1-0.2,8.3,0,12.4,0c1.7-8.9-1.7-13.5-10.2-14C337.9,278.4,336.1,278.9,329.3,284.1z M357.7,304.9c-6.4,0-12.3-0.2-18.2,0.1
			c-3.7,0.2-6.2,2.6-6.8,6.3c-0.5,3.2,0.8,6.1,3.9,7.4c5.6,2.3,11.4,2.4,16.8-0.7C358.3,315.1,357.8,310.2,357.7,304.9z"/>
		<path class="st0" d="M505.2,186.2c-14.9,0-29.5,0-44,0c-1.1,5.7,1.3,10.8,6.1,13.8c6.6,4.1,16.6,2.5,25.2-4.1
			c3.1,3.7,6.3,7.4,9.5,11.2c0.5-0.2,0.9-0.3,1.4-0.5c-2,1.7-3.9,3.4-6,5c-10.3,7.6-29.4,8.3-40.4,1.7c-6.3-3.8-10.3-9.4-12.3-16.3
			c-2.8-9.6-3.2-19.3-0.8-29.1c4-16.5,15.8-25,33-24.1c14.9,0.8,26.3,11.6,28.3,27.4C505.7,175.7,505.2,180.6,505.2,186.2z
			 M487.3,173.7c0.1-9.8-5.5-15.6-14.2-15c-7.9,0.5-13.1,7-12,15C469.7,173.7,478.3,173.7,487.3,173.7z"/>
		<path class="st0" d="M205.8,144.5c6.1,0,11.6,0,17.9,0c0,2.1,0,3.8,0,5.6c0,12.6-0.1,25.3,0,37.9c0.1,7.2,2.8,11.3,8.2,12.7
			c8.6,2.2,15.3-2.8,15.5-11.9c0.2-12.6,0.1-25.3,0.1-37.9c0-2,0-3.9,0-6.3c6.1,0,11.8,0,17.8,0c0,24.1,0,47.9,0,72.1
			c-5.6,0-11.1,0-16.8,0c-0.2-1.7-0.5-3.4-0.7-5c-4.1,1.8-8,4.2-12.2,5.2c-15.2,3.5-28.4-4.9-29.5-20.1
			C204.8,179.5,205.8,162.2,205.8,144.5z"/>
		<path class="st0" d="M390.9,144.5c0.2,2,0.3,3.5,0.5,5.6c5.6-4.3,11.3-6.8,18.1-6.6c13.3,0.3,23.1,8.8,23.6,22.1
			c0.6,16.8,0.2,33.6,0.2,50.9c-5.8,0-11.5,0-17.9,0c0-1.7,0-3.5,0-5.3c0-12.8,0.1-25.6-0.1-38.5c-0.1-7.7-4-12.2-10.6-12.8
			c-6.6-0.7-11.8,3.1-12.9,9.7c-0.4,2.1-0.4,4.3-0.4,6.5c0,12.8,0,25.6-0.1,38.5c0,0.5-0.1,1-0.3,1.9c-5.7,0-11.4,0-17.4,0
			c0-23.9,0-47.7,0-72C379.3,144.5,384.9,144.5,390.9,144.5z"/>
		<path class="st0" d="M271.7,208c4.6-4.5,8.4-8.2,12.4-12.1c5.4,4.7,12.2,6.4,19.5,6.1c0.5,0,1,0,1.5,0c6.8-0.5,10.7-3.2,10.6-7.5
			c0-4.1-2.7-5.8-10-6.6c-4.5-0.5-8.9-0.9-13.4-1.7c-7.6-1.3-13.6-4.7-15.7-12.7c-2.3-8.5-0.9-16.2,5.6-22.5
			c11.1-10.6,37.9-10.1,48.7,1.2c-3.7,3.2-7.4,6.4-11.3,9.7c-3.9-1-8.7-2.6-13.7-3.3c-3-0.4-6.4,0.1-9.1,1.4
			c-1.8,0.9-3.6,3.9-3.4,5.8c0.2,1.8,2.6,4.5,4.4,5c5.2,1.2,10.5,1.4,15.8,2c17.1,2,25.6,19,16.3,33.2c-1.7,2.6-4.1,4.8-6.7,6.5
			c-10.7,7.1-37.3,7.7-49.2-3.2C273.5,208.7,272.5,208.4,271.7,208z"/>
		<path class="st0" d="M567.7,152.3c-3.8,3.6-7.5,7-11.3,10.6c-5.6-3.7-12.2-5-19.1-4.1c-1.6,0.2-3.6,0.6-4.6,1.6
			c-1.4,1.6-3,4-2.8,5.8c0.3,1.8,2.6,4.2,4.4,4.6c4.8,1.1,9.9,1.5,14.8,1.9c12,1.1,19.3,7.4,20.7,17.9c1.5,11.4-4,20.8-15.2,24.4
			c-13.1,4.2-26.3,4-38.8-2.3c-2.6-1.3-4.8-3.4-7.6-5.4c4.3-4,8.2-7.6,12.3-11.5c5.7,4.9,12.9,6.7,20.6,6.1c2.7-0.2,5.8-0.8,8-2.3
			c1.6-1,3.1-3.8,3-5.6c-0.2-1.8-2.2-4.3-3.9-4.9c-3.5-1.2-7.5-1.4-11.2-1.9c-2.5-0.3-5-0.5-7.4-0.9c-8.5-1.3-14.9-5.4-16.7-14.1
			c-1.8-8.9,0.2-16.9,7.8-22.7C532.2,140.4,556.4,141.6,567.7,152.3z"/>
		<path class="st0" d="M570.5,207.1c3.8-3.6,7.6-7.3,11.9-11.3c5.8,4.9,13.1,6.8,20.9,6.1c2.6-0.2,5.5-0.7,7.5-2.2
			c1.7-1.2,3.2-4.1,3.1-6.1c-0.1-1.7-2.4-4.2-4.2-4.8c-3.6-1.2-7.5-1.3-11.3-1.8c-2.3-0.3-4.6-0.4-6.9-0.8
			c-8.4-1.3-14.7-5.2-16.9-14c-2.2-9.2,1.1-18.2,8.5-23.4c11-7.7,34-7,44.5,1.3c0.7,0.5,1.5,0.8,2.8,1.4c-4.7,4.1-8.4,7.3-12,10.4
			c-4.4-1.1-9.3-2.5-14.3-3.3c-2.5-0.4-5.3,0.1-7.8,0.8c-3,0.8-4.8,3-4.8,6.2c0.1,3.5,2.4,5.1,5.4,5.5c4.8,0.7,9.6,1.1,14.4,1.5
			c14.8,1.4,22.7,11.8,20,26.3c-1.1,6-4.6,10.2-9.4,13.5C611.4,219.8,581.6,220.6,570.5,207.1z"/>
		<path class="st0" d="M561.4,92.2c-5.4,0-10.3,0-15.6,0c-0.3-1.3-0.7-2.6-1-4.1c-0.5,0.1-1,0.2-1.4,0.4c-8.2,6.1-17.2,5.7-26.2,2.5
			c-7.5-2.7-11.8-10.4-11.6-19.3c0.2-8.6,4.7-15.3,12.7-17.8c3.6-1.1,7.5-1.4,11.3-1.6c4.8-0.3,9.6-0.1,14.2-0.1
			c2-9-0.8-13-9.2-13.8c-5.7-0.6-11,0.3-15.6,5.5c-3.1-3.9-6.1-7.6-9.5-11.8c3.2-4.4,8.9-7.1,15.5-7.8c8.2-0.9,16.3-0.9,24.1,2.4
			c7.2,3.1,11.8,8.7,12.1,16.4C561.7,59.3,561.4,75.5,561.4,92.2z M544.1,64c-5.1,0-9.9-0.2-14.7,0.1c-4.6,0.3-7.2,3.2-7.3,7.3
			c-0.1,4.3,2,6.9,6.8,7.6C538,80.4,546.8,77.6,544.1,64z"/>
		<path class="st0" d="M513.4,324.5c4.5-4.1,8.3-7.7,12.3-11.4c7.6,5.8,15.9,7.4,24.8,5.9c1.9-0.3,4.1-0.8,5.5-2
			c1.4-1.3,2.8-3.5,2.7-5.3c0-1.5-1.8-3.6-3.3-4.4c-2-1-4.5-1.1-6.8-1.4c-5.9-0.8-12-1.1-17.8-2.4c-7.2-1.7-11.9-6.4-13.1-14
			c-1.2-7.5,1.2-13.8,7-18.7c5.2-4.4,11.5-6.1,18-6.6c11.2-0.7,22.2,0.2,32.4,7.7c-3.6,3.3-6.7,6.5-10.1,9.2c-0.9,0.7-3,0.2-4.3-0.3
			c-6.3-2.2-12.7-4-19.5-2.1c-3.1,0.9-5.7,2.5-5.6,6c0.1,3.7,2.9,5,6.1,5.4c5.1,0.6,10.3,0.9,15.4,1.5c13.7,1.7,20.7,9.1,20.1,21.3
			c-0.4,8.6-5.1,14.5-12.8,17.4c-14.1,5.4-28.3,5.1-42.3-0.5C519.1,328.9,516.6,326.6,513.4,324.5z"/>
		<path class="st0" d="M459.2,63.8c-0.2,6.6,2.1,11.2,7.3,13.4c8.1,3.5,15.6,1.8,22.5-4.5c2.9,3.5,5.8,7.1,9.1,11.1
			c-2.5,3.2-7,6.3-12.3,7.8c-8.3,2.4-16.8,2.4-25.1-0.2c-6.7-2.1-11.9-6.4-14.5-12.8c-5.8-14.1-6.1-28.4,1.6-41.8
			c5.5-9.6,14.8-13,25.5-12.6c10.4,0.4,18.6,4.8,23.8,14.1c4.4,7.9,4.8,16.4,4,25.7C487.1,63.8,473.4,63.8,459.2,63.8z M484.2,52.1
			c-0.5-9.4-5.9-14.7-13.7-13.9c-7.2,0.7-11.6,6.4-10.7,13.9C467.8,52.1,475.8,52.1,484.2,52.1z"/>
		<path class="st0" d="M573.6,24.9c5.6,0,10.7,0,16.1,0c0.2,1.5,0.5,3,0.7,4.5c0.4-0.1,1,0,1.3-0.3c5-3.8,10.5-5.5,16.8-5.2
			c11.2,0.6,19.8,8.1,20.7,19.2c0.8,8.9,0.5,18,0.6,27c0.1,7.2,0,14.3,0,21.9c-5.6,0-11,0-17,0c0-1.8,0-3.6,0-5.3
			c0-11.8,0.2-23.7-0.1-35.5c-0.2-9.9-8.8-15-16.8-10.4c-4.5,2.6-5.5,6.9-5.5,11.6c-0.1,11.3,0,22.7,0,34c0,1.8,0,3.6,0,5.8
			c-5.7,0-11.1,0-16.8,0C573.6,69.7,573.6,47.6,573.6,24.9z"/>
		<path class="st0" d="M233.2,92.2c-0.2-1.7-0.3-3-0.5-4.5c-0.6,0.1-1.1,0-1.4,0.2c-4.9,4-10.5,5.4-16.8,5.2
			c-11.2-0.5-20.1-7.3-20.8-18.4c-0.9-16.4-0.2-32.9-0.2-49.6c5.3,0,10.6,0,16.6,0c0,1.8,0,3.6,0,5.3c0,11.8-0.1,23.7,0,35.5
			c0.1,6.8,3.4,11.1,9,12c7.5,1.1,13-3.5,13.2-11.3c0.2-12,0.1-24,0.1-36c0-1.7,0-3.3,0-5.4c5.6,0,11,0,16.7,0c0,22.2,0,44.4,0,67
			C243.8,92.2,238.7,92.2,233.2,92.2z"/>
		<path class="st0" d="M311.7,58.3c0.6-4.8,0.7-9.6,1.7-14.3c2.8-12.2,13.1-19.8,26.4-20.1c14.2-0.2,24.9,6.9,28,19.3
			c2.6,10.3,2.4,20.8-0.1,31.1c-1.4,5.9-4.8,10.6-9.9,13.9c-9.9,6.3-20.5,6.6-30.9,1.9c-9.9-4.5-13.9-13.3-14.5-23.8
			c-0.2-2.7,0-5.3,0-8C312.1,58.4,311.9,58.3,311.7,58.3z M352.8,58c-0.6-3.6-0.8-7.8-2-11.7c-1.4-4.7-5.5-7.2-10.3-7.1
			c-4.7,0-9.5,2.7-10,7.5c-0.8,7.8-0.9,15.9-0.1,23.7c0.6,5.3,4.9,7.7,10.2,7.7c5.4,0,9.3-2.7,10.6-8
			C352.1,66.2,352.3,62.4,352.8,58z"/>
		<path class="st0" d="M47.5,241.6c26.3,0,47.6,21.1,47.6,47.1c0.1,26.3-21.2,47.7-47.6,47.8c-26.3,0-47.7-21.4-47.5-47.7
			C0.1,262.6,21.2,241.6,47.5,241.6z M47.8,249.7c-21.9-0.1-39.5,17.2-39.9,39c-0.4,21.6,17.9,39.9,39.7,39.9
			c21.7,0,39.6-18,39.6-40C87.1,267.4,69.3,249.8,47.8,249.7z"/>
		<path class="st0" d="M47.5,120.7c26.5,0.1,47.9,21.4,47.7,47.6c-0.2,26.4-21.6,47.4-48.1,47.3C21,215.5,0,194.2,0,167.9
			C0.1,141.7,21.2,120.6,47.5,120.7z M48.2,128.7C26.3,128.3,8.5,145.5,8,167.8c-0.5,21.3,17.2,39.5,38.9,40
			c21.3,0.5,39.8-17.3,40.3-38.7C87.6,147.3,70.1,129.1,48.2,128.7z"/>
		<path class="st0" d="M408.2,333.2c-6.7,0-12.6,0-18.7,0c0-22.8,0-45.2,0-68c6,0,11.7,0,17.7,0c0.1,1.6,0.3,3.2,0.4,4
			c6.1-1.8,12.2-4.4,18.6-5.1c6.4-0.7,12.8,1.2,17.9,6.5c-4.7,4.4-9.2,8.5-13.7,12.7c-1.8-1-3.1-2-4.6-2.6
			c-8.7-3.9-17.4,1.6-17.5,11.2c-0.1,12,0,24,0,36C408.2,329.5,408.2,331.2,408.2,333.2z"/>
		<path class="st0" d="M262.6,24.9c5.2,0,10.2,0,15.5,0c0.2,1.6,0.4,3.2,0.5,4c5.5-1.6,11-3.9,16.7-4.8c6-0.9,11.5,1.3,15.8,5.8
			c-4.4,4.1-8.7,8.1-13.3,12.4c0.1,0.1-0.7-0.5-1.5-1c-3.6-2.5-7.4-2.9-11.3-0.8c-4.2,2.3-6,6.1-6,10.8c0,11.5,0,23,0,34.5
			c0,2,0,4,0,6.3c-5.6,0-10.8,0-16.5,0C262.6,69.9,262.6,47.7,262.6,24.9z"/>
		<path class="st0" d="M342.4,144.5c5.7,0,11.3,0,17.2,0c0,24,0,47.9,0,72.1c-5.6,0-11.2,0-17.2,0
			C342.4,192.7,342.4,168.7,342.4,144.5z"/>
		<path class="st0" d="M341.7,117.5c6.2,0,11.9,0,18.1,0c0,4.8,0,9.3,0,14.2c-6,0-11.8,0-18.1,0
			C341.7,127.1,341.7,122.5,341.7,117.5z"/>
		<path class="st0" d="M619.5,281.8c1.9-5.3,3.4-9.6,5.1-13.7c0.5-1.1,1.9-1.9,2.9-2.8c0.6,1.1,1.7,2.2,1.8,3.4
			c0.5,5.9,0.8,11.9,1.2,18.4c-4.4-1.7-3-5-3.2-7.4c-0.3-2.8-0.1-5.6-0.1-8.4c-0.4-0.1-0.8-0.2-1.2-0.3c-2,5.2-3.9,10.5-5.9,15.7
			c-0.6,0.1-1.1,0.1-1.7,0.2c-1.9-5.2-3.8-10.5-6.2-16.7c-0.6,6.2-1,11.3-1.5,16.5c-0.5,0-0.9,0-1.4,0c-0.3-0.8-0.9-1.6-0.9-2.4
			c0.3-5.3,0.6-10.6,1.1-15.9c0.1-1.1,1.1-2.1,1.7-3.2c1,0.8,2.5,1.5,3,2.5C616.2,272.1,617.6,276.5,619.5,281.8z"/>
		<path class="st0" d="M597.4,286.5c0-6.2,0-12.3,0-18.4c-2.7-0.4-4.6-0.7-6.6-0.9c0-0.5,0.1-0.9,0.1-1.4c5.2,0,10.3,0,15.5,0
			c0,0.5,0.1,1,0.1,1.4c-1.8,0.2-3.6,0.5-6.7,0.9c0,6,0,12.3,0,18.6C599,286.7,598.2,286.6,597.4,286.5z"/>
	</g>
</g>
</svg>
