<?xml version="1.0" encoding="utf-8"?>
<!-- Generator: Adobe Illustrator 19.2.1, SVG Export Plug-In . SVG Version: 6.00 Build 0)  -->
<svg version="1.1" id="Layer_1" xmlns="http://www.w3.org/2000/svg" xmlns:xlink="http://www.w3.org/1999/xlink" x="0px" y="0px"
	 viewBox="0 0 1010.4 195.4" style="enable-background:new 0 0 1010.4 195.4;" xml:space="preserve">
<style type="text/css">
	.st0{fill:#24374e;}
</style>
<g>
	<g>
		<path class="st0" d="M143.8,29.7c0,1.8,0,3.6,0,5.4c0,35.3,0,70.6,0.1,106c0,3.9-1,6.9-3.5,10c-5.5,6.7-11.6,12.8-18.4,18.2
			c-0.7,0.6-1.6,1-3.1,1.9c0-51.3,0-101.9,0-152.9c-2.1-0.5-3.8-1.1-5.5-1.2C86.7,15.1,63.9,23.7,44,41
			C27.5,55.4,16.3,73.2,10.5,94.3c-6.1,21.8-5,43.1,4.8,63.7c0.8,1.6,1.8,3.2,2.7,4.8c0.8,1.4,1.6,2.8,2,4.7
			c-0.8-0.7-1.6-1.3-2.2-2.1c-9.8-13.1-15.6-27.7-17.3-44c-1.4-13.9,0.3-27.2,4.8-40.3c4.5-13.2,11.5-25,20.9-35.4
			C40,30.3,56.8,20.2,76.8,15.5c12.1-2.8,24.4-3.1,36.6-0.2c1.4,0.3,2.9,0.5,5,0.9c0.2-4.5,0.3-8.6,0.5-13c8.2,0,16.1,0,24.4,0
			c0.2,1.3,0.4,2.6,0.5,3.8c0.1,5.5,0.1,11,0,16.5c0,2.4,0.8,4.1,2.5,5.7c3.5,3.3,7.2,6.5,10.2,10.2c9.7,11.9,15.3,25.5,17.3,40.8
			c3.8,29.5-5.1,55.2-23.2,78.1c-9.5,12.1-21.4,21.4-35.3,28c-19.5,9.2-39.8,11.5-60.8,5.8c-0.6-0.2-1.2-0.4-2.9-1
			c5,0.3,8.9,0.6,12.8,0.8c17.2,0.9,33.1-3.8,47.6-12.4c26.9-16,44.3-39.4,52.2-69.6c4.3-16.4,4.2-32.9-0.4-49.3
			C160.5,49.7,155,40,147,31.6c-0.6-0.6-1.2-1.2-1.8-1.7C144.9,29.8,144.5,29.8,143.8,29.7z"/>
		<path class="st0" d="M89.8,185.5c0-53.3,0-106.4,0-159.5c3.7-1.1,18.9-1.2,24.4-0.2c0.1,1.8,0.3,3.7,0.3,5.6c0,38.5,0,77,0,115.5
			c0,7.8,0,15.7,0,23.5c0,2.3-0.4,4.3-2.5,5.6C105.1,180,98,183.7,89.8,185.5z"/>
		<path class="st0" d="M60.3,48.5c8,0,15.7,0,23.4,0c0.2,0.1,0.3,0.2,0.4,0.4c0.1,0.1,0.2,0.3,0.3,0.4c0.1,1,0.3,2,0.3,3
			c0,44.3,0,88.5-0.1,132.8c0,0.5-0.3,0.9-0.5,1.7c-7.9,0-15.8,0-23.6,0c-0.2-0.2-0.3-0.3-0.4-0.5c-0.1-0.1-0.2-0.3-0.2-0.4
			c-0.1-1.2-0.2-2.3-0.2-3.5c0-43.9,0-87.9,0.1-131.8C59.7,50.1,60,49.6,60.3,48.5z"/>
		<path class="st0" d="M29.9,71.3c8.9,0,16.9,0,25.3,0c0,38.5,0,76.7,0,115.3c-3.4,0.8-6.6,0.9-9.8-0.2c-4.5-1.5-8.4-3.9-12-7
			c-2.6-2.2-3.7-4.7-3.6-8.2c0.2-19.2,0.1-38.3,0.1-57.5c0-12.3,0-24.7,0-37C29.9,75.1,29.9,73.4,29.9,71.3z"/>
		<path class="st0" d="M211.7,151.1c-0.9-11.4,1.8-20.7,7.9-28.9c4.8-6.4,11.4-10,19.3-11.3c6.6-1.1,12.9-0.7,19.1,1.8
			c10.6,4.3,16.5,12.7,19.1,23.4c2.5,10.4,2.2,20.7-1.3,31c-7.9,23.2-33.7,27-49.6,16.5c-9.2-6.1-13.3-15.5-14.5-26.2
			C211.5,154.9,211.7,152.4,211.7,151.1z M227.5,149.2c-0.3,5.5,0.2,10.7,3,15.5c3.4,6,8.5,9.4,15.4,9.1c7.2-0.3,12-4.4,14.7-11
			c2.8-7,2.9-14.3,1.3-21.6c-0.6-2.7-1.7-5.4-3.1-7.8c-5.7-10-21.9-10.3-27.6-0.4C228.2,138.1,227.1,143.5,227.5,149.2z"/>
		<path class="st0" d="M426.1,3.8c0.6,4.4,0.6,9-0.1,14.1c-12.4,0.3-24.5,0-36.7,0.2c-1.3,4.2-0.6,8.1-0.6,12.6
			c9.8,0.9,19.6-0.2,29.5,0.6c1.1,4.7,0.4,9.3,0.5,14.4c-10,0.9-19.7-0.1-29.9,0.6c-0.6,5.7-0.2,11.3-0.2,17.5
			c6.7,0.5,13.2,0.2,19.6,0.2c6.3,0.1,12.6,0,19.1,0c0.9,5.1,0.4,9.7,0.4,14.1c-4,1-48.4,1.3-54.1,0.4c-0.9-3.5-1.3-67.2-0.4-74.7
			C376.7,2.7,421,2.5,426.1,3.8z"/>
		<path class="st0" d="M268.4,2.9c0,5.4,0,9.9,0,14.8c-6.3,0.6-12.4,0.2-18.5,0.3c-6.1,0.1-12.2,0.1-18.4,0.1
			c-1.1,4.5-0.8,8.4-0.3,12.9c10.1,0,20,0,30.2,0c0,5.2,0,9.7,0,14.9c-10.1,0-20,0-30.2,0c0,6.2,0,11.7,0,17.8
			c2.1,0.1,3.9,0.3,5.6,0.3c9.2,0,18.3,0,27.5,0c1.8,0,3.6,0,5.1,0c1.4,4.5,1.4,10.1,0.3,14.3c-3.6,0.9-47.2,1.1-53.2,0.3
			c-1-3.5-1.4-66-0.4-75.2c4.1-0.9,8.4-0.3,12.6-0.4c4.5-0.1,9,0,13.5,0c4.3,0,8.7,0,13,0C259.4,2.9,263.7,2.9,268.4,2.9z"/>
		<path class="st0" d="M638.7,22c4.6,0,8.4-0.2,12.2,0.1c1.2,0.1,2.4,1.2,3.9,2c3.2-2.1,7.2-3.5,11.7-3.2
			c7.6,0.4,13.6,3.7,16.9,10.6c5.6,11.5,6,23.4,1.5,35.3c-4.7,12.5-17.9,16.8-29.1,10.9c-0.4-0.2-0.9-0.3-2.1-0.6
			c0,2.7-0.1,5.1-0.1,7.5c0,2.5,0,5,0,7.9c-4.9,2.4-9.7,4.9-14.9,7.5C638.7,73.7,638.7,48.2,638.7,22z M653.6,50.5
			c0,2.8-0.1,5.6,0.1,8.4c0.1,1.2,0.4,2.7,1.2,3.6c2.7,3.2,6.5,3.8,10.4,3.3c3.6-0.5,5.2-3.4,6.1-6.5c1.6-5.7,1.2-11.5-0.2-17.1
			c-0.4-1.5-1.3-3.1-2.3-4.3c-2.3-2.9-5.8-3.6-9.9-2.1c-4,1.4-5.2,3-5.3,7.3C653.5,45.5,653.6,48,653.6,50.5z"/>
		<path class="st0" d="M430.4,187.6c-5,0-9.5,0-14.8,0c0-24,0-47.7,0-71.6c4.9-2.4,9.4-4.7,14.4-7.2c1.2,4.4,0.5,8.3,0.7,12.2
			c0.1,4,0,8,0,12.5c4.2-2.2,8.1-3.6,12.5-3.9c10.7-0.7,18.1,4.2,20.7,14.5c0.8,3.2,1.5,6.5,1.6,9.8c0.2,10,0.1,20,0.1,30
			c0,1-0.2,1.9-0.4,3.4c-4.6,0.9-9.2,0.4-14.2,0.4c-0.2-1.7-0.4-3.1-0.4-4.5c0-7.5,0.1-15-0.1-22.5c-0.1-3.3-0.4-6.6-0.9-9.9
			c-0.6-4.2-3.3-6.5-7.4-6.9c-5.3-0.6-8.7,1-10.1,5.3c-0.8,2.5-1.3,5.2-1.3,7.8c-0.2,8.5,0,17-0.1,25.5
			C430.7,184.1,430.5,185.7,430.4,187.6z"/>
		<path class="st0" d="M713.2,187.9c-3.9,0-7.5,0.2-11.1-0.1c-1.4-0.1-2.8-1.2-4.6-2.1c-3.4,1.9-7.4,3.5-12.1,3.3
			c-13.5-0.6-23.5-11.6-19.6-26c1.9-6.8,9.2-12.6,17.2-13c5.1-0.3,10.2,0.1,15.3,0.3c0.9-4.9-1.1-7.9-6-8.3c-4.5-0.4-9,0-13.2,1.8
			c-1.1,0.5-2.1,0.8-3.4,1.3c-2.7-2.9-4.4-6.2-5.7-9.6c8.7-7.2,26.4-8.3,35.6-2.7c5,3.1,8.2,7.5,8.3,13.4c0.2,13.1,0.1,26.3,0,39.4
			C713.8,186.3,713.5,186.7,713.2,187.9z M698.6,163.6c-4.8-2.4-9.6-2.1-14.3-1.2c-2.8,0.5-3.9,3.1-4.3,5.6
			c-0.3,2.5,0.5,5.1,2.8,6.5c3.9,2.5,7.8,1.9,11.9,0.2c3.7-1.6,4.6-4.5,4.1-8.1C698.8,165.7,698.7,164.9,698.6,163.6z"/>
		<path class="st0" d="M658.4,164.1c-5.2,0-10.7,0-16.2,0c-5.4,0.1-10.9-0.3-16.3,0.2c0.1,10.2,9.8,13.2,21.1,6.8
			c3.1,2.6,6.4,5.4,10.1,8.5c-1.2,1.4-2.1,2.6-3.2,3.5c-9.4,7.7-23.6,8.1-33.4,0.9c-4.5-3.3-7.4-7.6-9-12.9
			c-3-9.4-2.6-18.7,1.8-27.6c4.3-8.6,11.5-13.4,20.9-14.1c8.2-0.6,15,3,19.7,9.8c4.8,7.1,6.4,15.3,5.3,23.8
			C659.3,163.2,658.9,163.5,658.4,164.1z M644.5,152.7c-1.3-7.3-4.5-10.1-10.3-9.8c-4.8,0.2-7.9,3.7-8.2,10
			C632,152.9,638.1,153.1,644.5,152.7z"/>
		<path class="st0" d="M522.3,164.2c-11.4,0-22.3,0-33.2,0c0.7,10.4,9,13,21.6,6.9c3.2,2.6,6.4,5.4,9.9,8.3
			c-0.6,0.9-0.8,1.7-1.4,2.2c-10.1,9.4-26.7,10-36.6,1.4c-4.9-4.2-7.5-9.7-8.7-15.9c-1.6-8-0.8-15.8,2.6-23.3
			c5.2-11.7,19.2-17.6,31.4-12.6c4.8,2,8.2,5.6,10.8,10C522.6,148.2,523.5,155.6,522.3,164.2z M488.8,152.9
			c6.5-0.1,12.5,0.3,18.6-0.3c-0.2-5.8-3.1-9.3-7.8-9.8C493.5,142.3,490.6,144.8,488.8,152.9z"/>
		<path class="st0" d="M910.3,22.3c5.2,0,9.5,0,14.2,0c0.1,1.9,0.3,3.5,0.3,5.1c0.2,9.3,0.5,18.6,0.7,27.9c0,1.2,0.1,2.3,0.3,3.5
			c0.9,4.4,3.4,6.7,7.8,7.2c4.9,0.5,8.3-1.2,9.9-5.6c0.7-2,1.1-4.2,1.1-6.3c0.1-8.8,0-17.7,0.1-26.5c0-1.6,0.1-3.3,0.2-5.2
			c4.9,0,9.5,0,14,0c1,3.7,1.3,49.5,0.3,56.4c-4.3,0.5-8.7,0.4-13.2,0.1c-0.8-0.1-1.6-1-2.9-1.9c-3.2,1.6-7.4,3.2-12.2,3.3
			c-11.7,0.2-18.5-7.6-20.1-17.6c-0.7-4.2-0.8-8.6-0.9-12.9c-0.1-7.3-0.1-14.7,0-22C909.9,26,910.2,24.2,910.3,22.3z"/>
		<path class="st0" d="M844.3,78.8c-5.1,0-9.6,0-14.4,0c-0.1-1.6-0.4-3.1-0.4-4.5c0-7.3,0.1-14.6-0.1-22c-0.1-3.3-0.4-6.6-0.9-9.9
			c-0.8-5-3.5-7.2-8.5-7.4c-5.1-0.2-8.3,2.1-9.4,7c-0.5,2.4-0.9,4.9-0.9,7.4c-0.1,8,0,16,0,24c0,1.6,0,3.3,0,5.1
			c-5,1-9.6,0.5-14.1,0.5c-1.2-3.7-1.5-50.6-0.3-56.9c4,0,8.1-0.2,12.2,0.1c1.1,0.1,2.2,1.5,3.6,2.4c3.4-2.5,7.6-3.7,12.3-3.7
			c11.2-0.1,17.7,6,20.1,16.3c0.8,3.4,1,6.9,1.1,10.4c0.1,8.7,0.1,17.3,0,26C844.6,75.1,844.4,76.7,844.3,78.8z"/>
		<path class="st0" d="M595.7,55.1c-0.4,4.9,1.4,7.7,4.8,9.4c5.7,2.9,10.9,1.8,16.1-2.4c3.4,2.8,6.7,5.6,10,8.4
			c-0.9,3.4-3.5,4.5-5.6,5.9c-8.6,5.6-26.1,6.2-34.9-5.4c-5.6-7.4-7.2-16-6.1-25.1c0.8-7.1,3.6-13.4,8.8-18.6
			c8.6-8.6,27.3-10.2,35.9,4.2c4.2,7.1,5.6,14.8,4.7,23.5C618,55.1,607.1,55.1,595.7,55.1z M614.5,43.6c-1.5-7.2-5.2-10.3-10.9-9.6
			c-4.5,0.5-7.5,4.3-7.4,9.6C602.1,43.6,608.1,43.6,614.5,43.6z"/>
		<path class="st0" d="M438.8,78.7c0-19.1,0-37.5,0-56.2c4.4-1.2,8.7-0.5,13-0.4c0.8,0,1.7,1.3,3,2.4c4-3.4,9.2-3.9,14.6-3.6
			c7.9,0.5,14.3,5.2,16.7,12.8c0.8,2.7,1.6,5.5,1.6,8.3c0.2,11.3,0.1,22.6,0.1,34c0,0.8-0.2,1.6-0.4,2.7c-4.8,0-9.3,0-14.3,0
			c-0.1-1.5-0.3-3-0.3-4.4c0-8.8,0-17.7,0-26.5c0-2-0.2-4-0.6-5.9c-1.3-4.9-4.5-7.1-9.6-6.9c-4.7,0.2-8.1,3.3-8.7,8.1
			c-0.2,1.8-0.2,3.7-0.2,5.5c0,8.3,0,16.7,0,25c0,1.6-0.2,3.2-0.3,5.1C448.2,79.2,443.5,79.2,438.8,78.7z"/>
		<path class="st0" d="M588.6,187.6c-5.5,0-10.2,0-15.3,0c-0.2-1.7-0.4-3.2-0.4-4.6c0-6.8-0.1-13.7,0-20.5c0.1-3.3-0.7-6.2-2.5-8.9
			c-7.6-11.9-15.1-23.9-22.6-35.9c-1-1.5-1.8-3.1-2.8-4.7c3.4-1.2,10.2-1.4,17.2-0.6c5.9,9.7,11.9,19.6,18.2,30.1
			c1.1-1.3,2.1-2.1,2.7-3.1c4.8-7.8,9.6-15.6,14.1-23.5c1.6-2.8,3.4-4.2,6.7-4c4.1,0.3,8.2,0.1,13.1,0.2c-1.8,3.1-3.2,5.3-4.6,7.5
			c-7.4,11.8-14.9,23.6-22.3,35.5c-1.1,1.7-1.6,4-1.6,6.1c-0.2,7-0.1,14-0.1,21C588.6,183.8,588.6,185.4,588.6,187.6z"/>
		<path class="st0" d="M785.3,55.1c-5.8,0-11.4,0-17,0c-5.4,0-10.9-0.1-16.3,0.1c0.9,10.7,10.4,13.8,21.3,7.1
			c3.3,2.6,6.7,5.4,10.2,8.2c-0.9,2.9-3.2,3.9-5.2,5.4c-8,5.9-23.6,5.9-31.9-1c-3.3-2.7-6-6-7.4-9.9c-3.7-10.4-4.1-20.9,1.1-30.9
			c5.1-9.8,14.9-14.7,25.8-13c5.7,0.9,10.3,3.9,13.7,8.4C785.2,37,786.6,45.4,785.3,55.1z M770.5,43.7c-0.6-6.6-4.2-9.9-9.7-9.7
			c-5.1,0.2-8.1,3.6-8.4,9.7C758.4,43.7,764.3,43.7,770.5,43.7z"/>
		<path class="st0" d="M901.4,55.1c-11.3,0-22.2,0-33.2,0c-0.8,4.6,1.6,7.1,4.5,9.1c4.2,2.9,9.9,2.2,16.6-1.8
			c1.7,1.3,3.6,2.7,5.4,4.1c1.6,1.4,3.2,2.9,4.9,4.4c-2.2,3.6-5.6,5.4-9,6.9c-6.3,2.7-13,3-19.5,1.2c-10.4-2.9-16-10.5-18.1-20.6
			c-1.3-6.4-1.2-12.9,0.9-19.2c4.8-14.9,17.9-21.4,31.2-17.5c5.9,1.7,10,5.8,12.9,11.1C901.5,39.6,902.5,46.8,901.4,55.1z
			 M886.5,43.7c-0.6-6.5-4.2-9.9-9.7-9.7c-5.2,0.2-8.1,3.4-8.4,9.7C874.3,43.7,880.3,43.7,886.5,43.7z"/>
		<path class="st0" d="M317.4,78.8c-5.1,0-9.6,0-14.3,0c-0.2-1.5-0.4-2.8-0.4-4c0-6.8-0.1-13.7,0-20.5c0.1-3.1-0.7-5.7-2.4-8.4
			c-8.3-13-16.4-26.2-24.6-39.4c-0.5-0.8-1-1.7-1.7-3c3-1,5.7-0.4,8.4-0.5c2.8-0.1,5.6,0,8.8,0c6.2,10.3,12.3,20.5,19,31.6
			c6.6-10.8,12.8-21,19.1-31.3c5.5,0,10.9,0,16.9,0c-0.5,1.2-0.8,2.2-1.3,3.1c-8.1,12.8-16.1,25.7-24.3,38.4c-2,3.1-3,6.1-2.9,9.8
			c0.2,6.3,0.1,12.7,0,19C317.7,75.1,317.5,76.7,317.4,78.8z"/>
		<path class="st0" d="M408.4,112.6c0,4.6,0,8.9,0,13.8c-7.1,1.3-14.2-0.1-21.7,0.9c0,20.2,0,40.1,0,60.3c-5.1,0-9.7,0-14.8,0
			c-0.1-1.8-0.3-3.6-0.3-5.3c0-16.3,0-32.6,0-48.9c0-1.9-0.3-3.9-0.5-6.4c-7.3,0-14.3,0-21.6,0c0-5.1,0-9.6,0-14
			C353.4,111.7,402.7,111.4,408.4,112.6z"/>
		<path class="st0" d="M532.2,36.2c-4.7,0-8.9,0-13.7,0c0,2.9,0,5.2,0,7.5c0,5.2,0.2,10.3,0,15.5c-0.2,4.8,2.8,8.7,9.4,5.5
			c1.3-0.6,2.5-1.6,4.3-2.8c-0.6,4.8-1,9-1.7,13.2c-0.2,1-1,2.2-1.8,2.7c-8.5,5.8-20.7,2.1-24.2-7.4c-0.7-2-0.9-4.2-0.9-6.3
			c-0.1-7.5,0-15-0.1-22.5c0-1.6-0.2-3.2-0.4-5.2c-3.2-0.2-5.9-0.4-8.9-0.6c-1.1-4.4-0.4-8.6-0.5-13.4c3.1-0.3,5.9-0.5,9-0.8
			c1.8-4.6,0-9.4,1.2-14.4c3.9-2.6,8.7-4.5,13.9-7.2c1.4,7.3,0.1,14.2,1,21.6c4.3,0.2,8.5,0.4,13,0.6
			C532.9,26.7,532.4,30.9,532.2,36.2z"/>
		<path class="st0" d="M285.1,131.2c2.4-0.2,4.2-0.4,6.4-0.7c0.1-2.3,0.1-4.4,0.2-6.5c0.5-5.8,1.7-11.5,7.9-13.8
			c5.8-2.1,11.7-2,17.7,0.2c0,3.8,0,7.4,0,11.2c-3.4,0-7-1.7-9.4,1.6c-1.4,2-1.7,4.3-0.5,7.2c2.6,0.2,5.5,0.5,8.9,0.7
			c0.1,2.3,0.2,4.4,0.2,6.5c0,2.1,0,4.3,0,7c-3.2,0.2-6.1,0.3-9.7,0.5c-0.1,1.8-0.3,3.6-0.3,5.3c0,10.7,0,21.3,0,32
			c0,1.6-0.2,3.2-0.3,5.1c-4.8,0-9.2,0-14.3,0c-0.2-1.8-0.4-3.6-0.4-5.3c0-10.3,0-20.6,0-31c0-1.8,0-3.6,0-5.8
			c-2.3-0.3-4.4-0.6-6.7-0.9C285.1,140.1,285.1,135.8,285.1,131.2z"/>
		<path class="st0" d="M1007,39c-2-0.9-3.4-1.7-5-2.3c-7-2.8-13.1,0.9-13.3,8.4c-0.3,9.3-0.1,18.6-0.1,27.9c0,1.8,0,3.6,0,5.7
			c-5.2,0-9.7,0-14.9,0c-0.1-2.5-0.3-4.9-0.3-7.3c-0.1-8,0-15.9-0.3-23.9c-0.3-8.3-0.2-16.5,0.8-25c4.4-1.1,8.7-0.5,12.9-0.4
			c0.9,0,1.7,1.3,2.7,2.2c3.6-2.8,8-3.9,12.8-3.3c1.5,0.2,3,0.5,4.3,1.1c4.1,1.7,4.4,2.4,3.1,6.8C1008.9,32.1,1008,35.3,1007,39z"/>
		<path class="st0" d="M725.6,187.6c-1.1-4.3-1.2-51.2-0.1-56.6c5.1,0.4,10.5-1.8,15.8,2c6.8-4.6,13.9-4.8,21.3,0.4
			c-1.3,4.9-2.6,9.6-3.7,13.7c-3.9-0.8-7-2-10.2-2.1c-4.7-0.2-6.8,1.7-7.8,6.1c-0.6,2.9-1,5.9-1,8.9c-0.1,7.5,0,15-0.1,22.5
			c0,1.6-0.1,3.2-0.2,5.1C734.7,187.6,730.3,187.6,725.6,187.6z"/>
		<path class="st0" d="M541.4,22c3.5,0,6.9,0,10.2,0c3.1,0,3.1,0.1,5.3,2.5c9-5,14.6-5,21.4,0.2c-0.8,4.7-1.9,9.5-3.9,14.1
			c-2.2-0.9-3.9-1.9-5.8-2.5c-5.6-1.5-11.4,0.6-12,7.5c-0.2,2.8-0.7,5.6-0.7,8.4c-0.1,8.6,0,17.3,0,26.4c-5,0.6-9.6,0.3-14.1,0.3
			C540.5,75.3,540.3,28.5,541.4,22z"/>
		<path class="st0" d="M711.6,78.8c-5.4,0-9.8,0-14.2,0c-1-3.8-1.4-49.2-0.4-56.4c4.3-0.7,8.7-0.4,13.2-0.1c0.9,0,1.7,0.9,2.9,1.7
			c6.2-3.8,13.4-4.9,20.7,0.8c-1.3,4.8-2.5,9.4-3.8,14.3c-1.8-0.9-3.1-1.5-4.4-2.1c-7.5-3.2-13.6,0.4-13.9,8.6
			c-0.3,9.2-0.1,18.3-0.1,27.5C711.6,74.8,711.6,76.6,711.6,78.8z"/>
		<path class="st0" d="M143.6,171.5c0,5.2,0,9.9,0,14.8c-3.4,1.6-6.9,0.6-10.3,0.8c-3.5,0.2-6.9,0-11.1,0
			C129.5,181.7,136.3,176.8,143.6,171.5z"/>
		<path class="st0" d="M786.4,125.2c-0.4-2.3-0.8-3.9-1.2-6.2c-1.2,1.9-2.1,3.4-3.3,5.4c-1-1.8-1.8-3.2-2.9-5.2
			c-0.3,2.2-0.6,3.8-0.9,5.7c-3.2-1.4-2.1-4-2.2-6c-0.1-2.2-0.3-4.6,1-6.9c3.7,0.7,2.4,5,5.3,6.5c1.2-2.2,2.5-4.3,3.9-6.8
			C788.2,115,788.3,120.7,786.4,125.2z"/>
		<path class="st0" d="M767.2,114.5c-1-0.4-2-0.8-2.9-1.2c0.2-1.9,4.7-2,9.5-0.4c-1.5,0.7-2.5,1.2-3.8,1.8
			c-0.2,3.3-0.3,6.5-0.5,10.9C766.5,121.6,768.6,118,767.2,114.5z"/>
	</g>
</g>
</svg>
