<?xml version="1.0" encoding="utf-8"?>
<!-- Generator: Adobe Illustrator 19.2.1, SVG Export Plug-In . SVG Version: 6.00 Build 0)  -->
<svg version="1.1" id="Layer_1" xmlns="http://www.w3.org/2000/svg" xmlns:xlink="http://www.w3.org/1999/xlink" x="0px" y="0px"
	 viewBox="0 0 800.2 535" style="enable-background:new 0 0 800.2 535;" xml:space="preserve">
<style type="text/css">
	.st0{fill:#24374e;}
</style>
<path class="st0" d="M258.2,0v186.2c-19.5-12-38.6-24.5-54.3-41.4c-3.2-3.5-5.8-7.7-8.5-11.7c-2-3-0.9-4.7,2.3-6.6
	c13.8-8.2,29.1-10.9,44.5-13.7c1.6-0.3,3.2-0.8,4.9-1.1c4.6-0.9,5.8-4,5.1-8.1c-2.4-13.5-10.8-21.6-24.7-23.3
	c-17.2-2.1-34.2-4.9-49.9-13c-6.1-3.2-12-0.6-17.8,1.1c-4,1.1-6.2,0.6-8.4-3.2c-4.3-7.3-11.4-11.8-19.1-14.6
	c-11.4-4-23.2-7-34.8-10.6c-14.6-4.6-29.1-9.5-43.7-14.2c-1.8-0.6-3.7-0.9-5.6-0.9c20.9,19.5,47.7,28.1,72.7,40
	C81.1,54,41.4,43.2,1.6,32.3c-0.2,0.4-0.4,0.8-0.6,1.3c9.6,5.8,19.2,11.7,28.9,17.3c15.4,8.7,31.4,15.9,48.6,20.6
	c12.2,3.3,23.2,9,32.2,18.6c-12.5,13.6-27.5,21.4-46.3,21.4c0,0.4-0.1,0.9-0.1,1.3c3.4,1.6,6.7,3.3,10.1,4.7
	c12.1,4.7,24.3,9.5,37.7,6.5c3.3-0.7,4.1,1.6,5.2,4c8.1,17.5,16.2,35,24.7,52.3c2.7,5.5,6.3,10.5,9.8,16.3c-2.3,1-4.7,2.1-7,3
	c-22.1,8.8-44.2,17.7-63.7,31.8c-30.4,22-48.5,52-57.1,88.1c-4.3,17.9-6,36.2-4.9,54.5c2.3,36.8,12.4,70.5,40.3,96.6
	c12.4,11.6,26.1,21.3,43.4,24.3c20.8,3.5,40-1.7,58.1-11.5c18-9.8,29.4-24.5,32.8-45.1c2.8-17.3-2.6-31.9-14-44.5
	c-17.7-19.7-39.4-25.9-65.1-19.8c-15,3.6-29.4,8.4-42.9,15.9c-2.8,1.6-4.2,0.8-5.5-1.8c-3.6-7.4-2.4-14.7,0.9-21.6
	c7.9-16.7,18.9-31.4,32.4-44.1c28.2-26.5,62.2-39.6,100.5-42.4c4.9-0.4,6.2,1.2,6.1,6c-0.3,15.8-0.1,31.7-0.1,47.5
	c0,2,0.2,3.9,0.3,6.5c17.4-3.8,34.3-7.7,51.9-11.5V535h542V0H258.2z M552.7,194.2h8.2v66.1h-8.2V194.2z M533.2,194.2h7.9v66.1
	c-1.1,0.2-2.1,0.4-3,0.4c-1.5,0-3-0.1-4.3-0.2C532.7,256.7,532.3,203.1,533.2,194.2z M506.6,210.9c8.6,0.7,13.7,6.1,16.7,13.7
	c1.7,4.4,2.4,9,1.7,14.5h-33.5c-0.5,7.7,2.9,12.6,9.8,14.3c6.7,1.7,11.7-1.1,15.4-8.9h7.6c0.1,5.1-2.2,9-5.7,12.2
	c-4.4,4.1-10,5.3-15.7,4.7c-13-1.3-20.2-9.2-20.8-22.3c-0.3-5.9,0-11.6,3-16.9C489.8,213.8,497.1,210.1,506.6,210.9z M484.6,140.8
	c6.2,0.1,11.3,5.1,10.7,11.2c0.6,5.8-4.9,11.1-10.9,11c-6.4-0.1-11.2-5.1-11.1-11.6C473.4,145.3,478.3,140.8,484.6,140.8z
	 M439.7,219.9v-7.2c3.3-1,28.4-1.3,36.2-0.4c1,3.4,0.2,6.2-2.1,9c-7.6,9.2-15,18.7-22.5,28.1c-0.6,0.8-1.1,1.6-2.2,3
	c9.6,0.7,18.6-0.1,27.9,0.5v7.6c-12.9,0.3-25.8,0-38.7,0.1c-1.4-4.1-0.6-7.1,1.8-10.1c7.2-8.7,14.2-17.6,21.3-26.4
	c0.9-1.1,1.7-2.4,3-4.2H439.7z M416.4,67.4c-0.8-4.2-0.7-8.4,0-13.1h37.9v83.5c0,2.3,0.3,4.5,0.5,7c4.5,0.4,8.5,0.7,13,1.1
	c0.4,4.9,0.5,9.6,0,15h-38.4V151c-0.7,0.2-0.9,0.2-1,0.3c-5.6,10.2-14.8,12.8-25.5,11.8c-10.2-1-17.9-6.4-22.2-15.7
	c-6.8-14.7-7.1-29.8,0-44.3c7.7-15.7,22.5-19.4,37.6-15.1c3.3,0.9,5.9,3,8,5.7c0.8,1,1.6,2,2.6,3.3V69.2
	C425,66.8,420.5,68.8,416.4,67.4z M413.8,219.5c-3.5-0.4-7.3-0.3-10.8,0.3c-3.9,0.6-4.6,4.3-5.7,7.8h-7.7c-0.5-6.6,2.3-11.8,8-14.4
	c7.3-3.3,14.9-3.4,22.3-0.6c5.3,2,7.3,6.5,7.3,11.9c0.1,7.3,0,14.7,0,22v7c1.8,0.2,2.9,0.3,4.3,0.4v6.5c-8.1,2.1-9.8,1.6-12.8-4.4
	c-4,3-8.3,5.4-13.4,5.4c-3.1,0-6.3-0.1-9.3-0.9c-5.3-1.5-8.1-5.6-8.5-11.1c-0.5-5.7,0.9-10.9,6.4-13.5c4-1.9,8.5-2.7,12.8-3.8
	c2.2-0.6,4.6-0.7,6.9-1.1c3.4-0.7,4.7-2,4.9-4.7C418.6,222.9,416.9,219.8,413.8,219.5z M329.8,232c0.6,4.5,1.8,8.8,4.3,12.6
	c6.2,9.3,18.3,12,27.7,6.2c6.2-3.8,8.7-9.8,9.1-17.4c-3.5-0.1-6.8-0.1-10.1-0.2h-10.2v-8h28.3v35.2c-1.8,0.1-3.4,0.2-5.4,0.2
	c-0.8-2.2-1.6-4.3-2.5-6.6c-0.6,0.3-1.1,0.4-1.4,0.7c-12.3,12-35.4,9.5-45.2-8.1c-7.6-14.1-5-35.4,6.1-46.4
	c6.9-6.9,15.4-8.9,24.8-7.9c6.4,0.7,12.4,2.7,16.9,7.6c3.9,4.1,6.2,8.9,6.6,14.9h-8.9c-0.3-0.6-0.5-1-0.7-1.5
	c-2.1-7.7-7.3-11.5-15.1-12.5c-7.7-1-14.3,1.1-18.9,7.5C330.2,215.4,328.8,223.4,329.8,232z M319.9,88.9h12.3
	c0.2-1.7,0.5-2.8,0.5-3.9c-0.8-15.4,10.1-27.8,26.2-30.8c6.3-1.2,12.6-1.1,18.8,0.8c5.2,1.6,9.7,4.4,12.9,8.9
	c3.5,4.8,4.4,10,2.5,15.6c-2.6,7.8-12,10.9-18.8,6.1c-5.1-3.7-5.9-11.2-1.5-15.8c1.2-1.3,2.7-2.3,4.1-3.5
	c-7.6-4.6-16.3-1.2-18.5,7.1c-0.8,2.8-0.7,10.9,0.2,15.4h14.3v13.3H358v39.3c0,1.1,0.7,2.1,1.3,3.5h11.4c1,5.3,0.6,10.2,0.4,14.9
	c-4.1,1.2-45.5,1.3-50.9,0.2v-14.8c3.8-0.2,7.2-0.3,11.1-0.5c0.5-2,1.2-3.9,1.2-5.8c0.1-11.7,0.1-23.3,0-35c0-0.5-0.3-0.9-0.6-1.9
	h-12V88.9z M359.2,439v6.8h-42.8c-0.8-3.2,0.6-6.1,1.5-9c1.8-5.8,5.4-10.3,10.3-13.7c4.9-3.4,10-6.5,14.9-10
	c4.6-3.3,8.2-7.3,8.2-13.5c0.1-6.2-3.2-10.8-8.9-12.2c-6.1-1.5-11.6,0.8-14.2,6.4c-1.2,2.7-1.7,5.7-2.8,9.2h-6.7
	c-2.7-9.8,4.4-21,14.8-22.6c4.2-0.7,8.8-0.6,12.8,0.4c15.3,3.8,17.7,22,8.6,32c-3.4,3.7-7.9,6.5-12.1,9.6c-3.6,2.6-7.6,4.8-11.2,7.5
	c-2.7,2.1-5.2,4.6-5.8,9C337.2,439.1,348,438.6,359.2,439z M358.6,330.8h-26.2c-2.4,6.6-4.8,12.9-7.1,19.3h-8.7
	c0.2-4,17.1-50.1,24.2-66.1H351c8.2,21.8,16.5,43.6,25,66h-10.4C363.3,343.7,361,337.3,358.6,330.8z M412.3,430.8
	c-3.6,14.3-17.4,20.6-30.8,14.2c-3.8-1.8-6.7-4.5-8.2-8.4c-1.4-3.8-2.5-7.9-3.2-11.9c-0.6-3.8-0.5-7.6-0.6-10.2
	c0.2-8,0.3-14.8,2.6-21.4c3-8.6,8.7-13,17.8-13.3c3-0.1,6,0,8.9,0.7c6,1.5,10.2,5.5,12.2,11.4c1.3,3.9,2.2,8,2.6,12.1
	C414.6,413,414.5,422,412.3,430.8z M416.3,350.1c-3.5-11.2-5.7-22.9-9.7-34.3c-2.8,11.4-5.7,22.8-8.5,34.3H389
	c-4.9-15.9-9.9-31.7-14.9-47.9h9.4c3.2,11.8,6.4,23.5,9.6,35.3h0.9c2.8-11.8,5.7-23.5,8.5-35.4h9.2c3,11.9,5.9,23.7,8.8,35.4
	c4.5-11.5,6.9-23.5,10.6-35.4h8.8c-5,16.2-9.9,32-14.8,48H416.3z M451,445.7h-8v-47h-16.9v-5.9c4-1.1,8.1-1.9,11.9-3.4
	c3.9-1.6,5.7-5.4,6.8-9.4h6.2V445.7z M454.7,351c-6.4-0.9-10-4.7-11-11.1c-1-6.7,1.6-12.5,7.5-14.8c3.9-1.6,8.3-2.2,12.4-3.2
	c2.1-0.5,4.3-0.6,6.4-1.1c3.4-0.8,4.7-2.3,4.8-4.9c0.1-2.9-1.7-5.8-4.5-6.5c-3.7-0.9-7.5-1-11.3,0.3c-3.5,1.2-4.6,4-5,7.7h-8.2
	c-0.2-7.5,3.4-13,10.3-15.3c5.8-1.9,11.8-1.9,17.7-0.5c6.3,1.5,9.5,5.7,9.5,12.3c0.1,8,0,16,0,24v5.1c1.8,0.3,3.2,0.5,4.7,0.8v5.9
	c-4.5,3.3-10.7,2.7-13.3-3.7c-3.5,2.6-7.1,5-11.6,5.2C460.3,351.2,457.5,351.4,454.7,351z M511.2,438.5c-5.3,7.3-15.5,10.1-24.6,8
	c-6.9-1.6-12.3-5.1-14.5-12.1c-0.6-1.8-0.8-3.8-1.2-6.1h7.9c3,8.4,7.2,11.9,14.5,11.6c6.2-0.2,11.2-4.2,12.8-10.1
	c1.9-7.3-0.2-14.3-5.6-17.9c-6.5-4.3-12.6-3.2-21.4,4c-1.8-0.3-3.9-0.6-6.3-0.9c2-11.5,4-22.5,6-33.9h32.6v6.7h-26.2
	c-1.1,5.9-2.2,11.4-3.4,18c6-3.2,11.1-4.4,17.1-3.2c7.6,1.4,15,7.4,16.4,18.3C516,427.2,515,433.2,511.2,438.5z M520.8,309.6
	c-0.7,0.1-1.5,0.3-2.3,0.4c-10.7,0.9-13.7,7.5-14.1,15c-0.4,6.6-0.1,13.3-0.1,20v5.1h-8.5v-47.8h7.5c0.1,2.4,0.2,4.7,0.3,7
	c2.5-2.2,4.7-4.6,7.3-6.4c2.8-2,6.1-2.4,9.9-1.8V309.6z M567.7,350h-7.9c-0.3-1.2-0.6-2.3-0.9-3.5c-7.6,5.9-15.9,6.6-24.3,2.3
	c-7.2-3.7-9.9-10.5-11.1-18c-0.8-5.5-0.3-11,1.5-16.2c4.6-13.1,19.3-18.1,31.1-10.6c0.8,0.5,1.6,1.1,3.2,2.2V284h8.4V350z
	 M572.9,250.8c-4-8.5-4.9-17.2-1.4-26c4.6-11.6,15.9-16.4,27.2-12.9c3.6,1.1,6.4,3.4,8.7,6.4c4.2,5.4,6.2,13,5.3,20.9h-34
	c0.1,8,3.9,13,10.8,14.4c6.6,1.4,11.3-1.4,14.8-9h8c-1.1,7.3-4.5,12.5-10.9,15.2c-5.7,2.4-11.6,2.4-17.5,0.5
	C579,258.7,575.2,255.5,572.9,250.8z M608,349c-7.7,3.4-15.5,3.5-23.2,0.2c-6-2.5-8.7-7.4-8.4-14.4h7.4c0.4,0.9,0.8,2,1.3,3
	c1.1,2.9,3.4,4.7,6.3,5c3.2,0.4,6.6,0.4,9.9,0.1c3.4-0.4,5.5-2.6,5.8-5.3c0.3-2.5-1-4.6-4.3-6c-2.9-1.2-6-1.8-9-2.7
	c-3.6-1.2-7.3-2.1-10.8-3.7c-8.4-3.7-7.5-16.9-1.4-20.6c2.2-1.4,4.7-3,7.1-3.3c4.6-0.5,9.4-0.7,13.8,0.2c7.3,1.4,10,5.3,11.4,14.6
	H606c-0.9-1.5-1.6-3.5-2.9-4.9c-2.9-3.3-11.9-3.7-15.4-1c-2.6,2.1-2.6,5.7,0.5,7.5c2.3,1.3,4.9,2.1,7.4,2.8
	c3.8,1.2,7.7,1.9,11.5,3.2c5.6,1.9,8.9,5.8,8.9,11.9C616.2,341.9,613.6,346.6,608,349z M659.2,260.4h-8.3c-0.1-1.5-0.4-2.9-0.4-4.3
	v-25.9c0-1.8-0.1-3.7-0.4-5.5c-0.5-2.7-2.2-4.7-4.7-5.3c-6.6-1.5-13.3-0.1-15.9,8c-0.7,2.3-0.9,4.9-1,7.4c-0.1,6.8,0,13.6,0,20.5v5
	c-1.8,0.2-3.1,0.3-4.5,0.3c-1.1,0-2.2-0.2-3.6-0.3v-48.1h7.4c0.2,1.4,0.4,2.8,0.7,4.5c0.6-0.3,1.2-0.5,1.6-0.9
	c5.8-5.6,12.6-6.2,19.9-3.9c4.7,1.5,7.4,4.8,8.5,9.6c0.3,1.5,0.8,2.9,0.8,4.4C659.2,237.2,659.2,248.5,659.2,260.4z"/>
<path class="st0" d="M429,124c-0.6,5.1-1.2,10.2-1.9,15.3c-0.1,0.6-0.3,1.3-0.5,1.9c-2,5.6-6,8.8-10.9,8.7s-9.2-3.2-11-8.7
	c-2.3-7.2-3.1-14.6-2.1-22.1c0.5-3.9,1.4-7.8,2.7-11.5c1.8-5.2,8-9.5,15.6-6.3c5.1,2.2,6.5,6.9,7.1,11.8c0.5,3.6,0.8,7.2,0.9,10.9
	C429.2,123.8,428.9,124,429,124z"/>
<path class="st0" d="M355.5,321.8c-6.9,0-13.1,0-19.8,0c3.3-9.4,6.5-18.4,10-28.3C349.1,303.3,352.1,312.2,355.5,321.8z"/>
<path class="st0" d="M531.8,326.2c0.8-3.3,1.4-6.8,2.5-10c3.5-9.9,17.5-9.2,22.1-2.3c4,6,4.3,18.2,0.2,24.2
	c-5.4,7.8-16.9,7.4-21.7-0.8C533.3,334.4,532.3,330.1,531.8,326.2z"/>
<path class="st0" d="M405.6,413.6c-0.5,4.6-0.6,9.3-1.5,13.8c-0.5,2.8-1.7,5.8-3.4,8.1c-4.4,6.1-13.4,5.9-18-0.1
	c-3.3-4.3-4.1-9.5-4.3-14.5c-0.3-7.1-0.8-14.3,0.9-21.3c0.4-1.8,0.8-3.6,1.5-5.2c2.1-5,5.9-7.4,11.3-7.4c5.3,0,9,2.8,10.6,7.5
	c1.4,3.8,1.8,8,2.4,12.1c0.3,2.3,0.1,4.6,0.1,7C405.3,413.6,405.5,413.6,405.6,413.6z"/>
<path class="st0" d="M418.3,237.1c0,2.7,0.4,5.1-0.1,7.2c-0.5,2.1-1.6,4.5-3.2,5.9c-3.7,3.2-8.2,4.3-13,3.2
	c-3.4-0.8-5.3-2.8-5.6-5.6c-0.3-2.9,1.3-5.8,4.3-7.2c1.5-0.7,3.1-1.2,4.7-1.4C409.4,238.4,413.5,237.8,418.3,237.1z"/>
<path class="st0" d="M474.2,327.1c0.8,4.9,1.2,9.7-3.1,13.2c-4.3,3.5-9.4,4.2-14.5,2.5c-4.7-1.6-5.4-8.2-1.3-11.3
	c1.5-1.2,3.5-2,5.4-2.3C465,328.3,469.4,327.8,474.2,327.1z"/>
<path class="st0" d="M578.8,230.8c1.6-8.5,5.8-12.1,13.1-11.9c6.6,0.2,10.7,4.3,11.8,11.9C595.5,230.8,587.4,230.8,578.8,230.8z"/>
<path class="st0" d="M516.1,230.7c-8.5,0-16.5,0-24.5,0c0.3-6.9,4.6-11.4,11-11.8C509.9,218.5,514.6,222.5,516.1,230.7z"/>
</svg>
